<svg width="3283" height="393" viewBox="0 0 3283 393" fill="none" xmlns="http://www.w3.org/2000/svg">
<mask id="mask0" mask-type="alpha" maskUnits="userSpaceOnUse" x="0" y="0" width="3283" height="393">
<rect width="3283" height="393" fill="#C4C4C4"/>
</mask>
<g mask="url(#mask0)">
<path d="M2683.68 179.334C2837.16 -11.2502 2798.01 -297.747 2798.01 -297.747C2798.01 -297.747 2509.99 -274.827 2356.48 -84.1159C2202.97 106.596 2242.15 393.029 2242.15 393.029C2242.15 393.029 2530.17 370.077 2683.68 179.334Z" fill="#E2F2F7"/>
<path d="M3013.24 -155.135C4326.57 -894.616 4757 -2620.79 4757 -2620.79C4757 -2620.79 3058.06 -3148.1 1744.73 -2408.62C431.393 -1669.14 1 57.0315 1 57.0315C1 57.0315 1699.91 584.313 3013.24 -155.135Z" fill="url(#paint0_linear)"/>
<path d="M2531.41 119.265C2761.32 57.0631 2894.27 -190.661 2894.27 -190.661C2894.27 -190.661 2654.43 -337.57 2424.5 -275.464C2194.57 -213.358 2061.65 34.4616 2061.65 34.4616C2061.65 34.4616 2301.32 181.403 2531.41 119.265Z" fill="#BDDFE8"/>
</g>
<defs>
<linearGradient id="paint0_linear" x1="1093.98" y1="748.819" x2="3664.62" y2="-3312.32" gradientUnits="userSpaceOnUse">
<stop offset="0.01" stop-color="white"/>
<stop offset="1" stop-color="#E84993"/>
</linearGradient>
</defs>
</svg>
