<svg width="177" height="75" viewBox="0 0 177 75" fill="none" xmlns="http://www.w3.org/2000/svg">
<path d="M42.9899 20.5975C43.0228 19.4549 42.9732 18.3114 42.8415 17.176C42.3069 12.4801 40.3602 8.05636 37.2578 4.48787C38.7657 2.74699 40.5198 1.23512 42.4647 0C46.3753 4.05979 48.6936 9.38908 48.9961 15.0147C47.8489 15.7591 46.7678 16.6005 45.7646 17.5295C44.7551 18.4705 43.8269 19.4949 42.9899 20.5918V20.5975ZM38.0914 36.1368L37.7317 35.7548C37.9087 35.2985 38.0742 34.8366 38.2227 34.369C38.2227 34.9393 38.2227 35.481 38.2512 36.0342L38.0914 36.1368" fill="#1EBDC5"/>
<path d="M33.1367 11.3261C31.517 9.56541 29.638 8.06167 27.5645 6.86673C28.6912 4.34964 30.2505 2.0491 32.1718 0.0693359C34.0684 1.28995 35.7813 2.7742 37.2588 4.47738C35.5043 6.50704 34.1102 8.82139 33.1367 11.3204V11.3261ZM36.3795 36.2404H36.3453C36.3453 36.0123 36.3967 35.7785 36.4138 35.5447L36.9448 35.6587C36.7621 35.864 36.5737 36.0636 36.3738 36.2632" fill="#F16785"/>
<path d="M39.3445 27.619C39.3445 27.5106 39.3445 27.4023 39.3445 27.2939V27.1628C39.3349 23.1449 38.2888 19.1973 36.3072 15.7007C35.4199 14.1264 34.3548 12.6589 33.1328 11.3269C34.1063 8.8279 35.5004 6.51355 37.2549 4.48389C40.3604 8.05322 42.3092 12.4792 42.8443 17.1777C42.976 18.3131 43.0256 19.4566 42.9927 20.5992C41.3846 22.7204 40.1508 25.1002 39.3445 27.6361" fill="#FADAE3"/>
<path d="M23.1573 27.0177C21.8331 26.6188 20.4769 26.3345 19.1038 26.1681C18.1808 26.0603 17.2526 26.0032 16.3234 25.997H16.1978C15.8038 25.997 15.4042 25.997 15.0102 26.0312C11.9529 21.3043 10.693 15.6394 11.4591 10.0642C11.9444 10.0357 12.4296 10.0186 12.9149 10.0186C14.7312 10.0199 16.5413 10.2284 18.3102 10.6401C18.2569 11.2826 18.2283 11.927 18.2245 12.5733V12.7387C18.2496 17.9163 19.9834 22.9412 23.1573 27.0348V27.0177ZM36.0717 36.769C35.7634 36.3014 35.4437 35.8452 35.1125 35.4004C35.5065 35.6913 35.9118 35.9707 36.3229 36.233C36.3229 36.4098 36.2829 36.5809 36.2601 36.7576H36.0717" fill="#025478"/>
<path d="M36.3221 36.2178C35.9111 35.9555 35.5057 35.676 35.1118 35.3852L34.9062 35.1172C35.3972 35.2655 35.894 35.4023 36.3964 35.5221C36.3964 35.7559 36.3507 35.9897 36.3221 36.2178Z" fill="#F498BB"/>
<path d="M37.7378 35.7941L36.9277 35.6345L37.2871 35.23C37.4412 35.4066 37.5952 35.5833 37.7549 35.7542C37.7556 35.7675 37.7556 35.7808 37.7549 35.7941" fill="#004363"/>
<path d="M37.7494 35.7554C37.5895 35.5843 37.4354 35.4075 37.2812 35.2307C37.6181 34.843 37.9378 34.4438 38.2461 34.0332C38.2461 34.1473 38.2461 34.2613 38.2461 34.3696C38.0977 34.8373 37.9321 35.2992 37.7551 35.7554" fill="#42C3D2"/>
<path d="M36.951 35.6338L36.4258 35.5197C36.46 35.092 36.4829 34.6586 36.4943 34.231C36.7569 34.5731 37.031 34.9039 37.3107 35.2289L36.951 35.6338" fill="#F38EB3"/>
<path d="M37.2808 35.2304C37.001 34.9054 36.7098 34.5746 36.4643 34.2325C36.4643 34.0386 36.4643 33.839 36.4643 33.6622V33.4284C36.4394 28.2648 34.7095 23.2538 31.543 19.1721C31.543 18.4764 31.6172 17.775 31.7028 17.0736C31.9361 15.1209 32.4137 13.2051 33.1244 11.3711C34.3464 12.7031 35.4115 14.1706 36.2988 15.7449C38.2804 19.2415 39.3265 23.1891 39.3361 27.207V27.3381C39.3361 27.4465 39.3361 27.5548 39.3361 27.6632C38.6769 29.741 38.308 31.8999 38.2399 34.0785C37.9316 34.4891 37.6119 34.8883 37.2751 35.276" fill="#FAE2EC"/>
<path d="M25.6812 13.7543C23.4222 12.2976 20.9289 11.2404 18.3105 10.6294C18.4966 8.37841 19.0061 6.16594 19.8235 4.06006C22.5411 4.53688 25.155 5.48239 27.5481 6.85429C26.5698 9.03828 25.9343 11.3598 25.6641 13.7372" fill="#004363"/>
<path d="M31.5565 19.1318C31.1283 18.5616 30.6715 18.0483 30.192 17.5294C28.852 16.0865 27.3368 14.8165 25.6816 13.7487C25.9519 11.3713 26.5873 9.04971 27.5657 6.86572C29.6392 8.06067 31.5182 9.5644 33.1379 11.3251C32.4272 13.1591 31.9496 15.0749 31.7163 17.0276C31.6307 17.729 31.5793 18.4304 31.5565 19.1261" fill="#F38EB3"/>
<path d="M30.2426 30.5709C28.1003 28.993 25.7042 27.7915 23.1574 27.0183C19.9834 22.9246 18.2496 17.8997 18.2246 12.7221V12.5567C18.2246 11.9142 18.2532 11.2698 18.3103 10.6235C20.9287 11.2373 23.4219 12.2963 25.6809 13.7542C25.5834 14.6119 25.5319 15.4742 25.5268 16.3375V16.5028C25.5322 17.3871 25.5855 18.2703 25.6866 19.1488C26.1669 23.2884 27.7435 27.2253 30.254 30.5538" fill="#0281AC"/>
<path d="M36.3799 35.5214C35.8775 35.4016 35.3808 35.2648 34.8898 35.1165C33.5551 33.3864 31.9851 31.8509 30.2253 30.5545C27.7148 27.226 26.1381 23.2891 25.6579 19.1495C25.5568 18.271 25.5035 17.3877 25.498 16.5035V16.3381C25.5032 15.4749 25.5547 14.6126 25.6522 13.7549C27.3074 14.8227 28.8225 16.0928 30.1625 17.5357C30.6421 18.0546 31.0988 18.5906 31.527 19.1381C31.3555 24.5887 33.0918 29.9285 36.437 34.2383C36.437 34.666 36.4027 35.0994 36.3685 35.5271" fill="#F5B0CE"/>
<path d="M36.4645 34.2321C33.1193 29.9223 31.383 24.5824 31.5546 19.1318C34.7226 23.2126 36.4527 28.2243 36.4759 33.3881V33.6219C36.4759 33.8158 36.4759 34.0154 36.4759 34.1922" fill="#FDEDF4"/>
<path d="M36.8148 40.614C36.8148 40.0437 36.8148 39.502 36.8148 38.9488L36.9519 38.8462L37.3115 39.2283C37.1346 39.6845 36.969 40.1464 36.8205 40.614H36.8148ZM32.5957 75.0001C28.6864 70.9389 26.3667 65.6108 26.0586 59.9854C27.2074 59.2387 28.2904 58.3954 29.2957 57.4649C30.308 56.5267 31.2365 55.502 32.0704 54.4026C32.0378 55.5452 32.0875 56.6887 32.2189 57.8242C32.7554 62.5167 34.6997 66.9376 37.7968 70.5065C36.2909 72.2488 34.5388 73.7626 32.5957 75.0001" fill="#1EBDC5"/>
<path d="M38.6609 39.4669L38.1357 39.3471C38.3184 39.1419 38.5068 38.9423 38.7066 38.7427H38.7409C38.7123 38.9765 38.6895 39.2103 38.6666 39.4441L38.6609 39.4669ZM42.8915 74.8909C40.9929 73.6707 39.2781 72.1864 37.7988 70.4829C39.5571 68.4549 40.9533 66.1402 41.9266 63.6398C43.542 65.4051 45.4218 66.9094 47.4989 68.0992C46.3721 70.6163 44.8128 72.9168 42.8915 74.8966" fill="#F16785"/>
<path d="M37.7888 70.505C34.6917 66.936 32.7473 62.5152 32.2109 57.8226C32.0794 56.6871 32.0298 55.5437 32.0624 54.4011C33.6671 52.2903 34.9007 49.9223 35.7106 47.3984C35.7106 47.5011 35.7106 47.6094 35.7106 47.7121V47.8603C35.738 53.7234 37.9528 59.3656 41.9223 63.6848C40.949 66.1852 39.5528 68.4999 37.7945 70.5278" fill="#FADAE3"/>
<path d="M39.9428 39.5971C39.5489 39.312 39.1435 39.0269 38.7324 38.7645C38.7324 38.5935 38.7724 38.4167 38.7952 38.2456H38.9836C39.2862 38.7132 39.6059 39.1694 39.9428 39.6085V39.5971ZM62.1404 64.9904C60.3221 64.9916 58.5098 64.783 56.7394 64.3688C56.7965 63.7244 56.8251 63.0744 56.8308 62.4243V62.2931C56.7968 57.1083 55.0643 52.0771 51.898 47.9684C53.2215 48.3701 54.578 48.6544 55.9515 48.8181C56.8988 48.932 57.8521 48.9891 58.8062 48.9891C59.2249 48.9891 59.6416 48.9777 60.0565 48.9549C63.1129 53.6822 64.3728 59.3468 63.6077 64.922C63.1224 64.9505 62.6371 64.9676 62.1518 64.9676" fill="#025478"/>
<path d="M40.1426 39.8662C39.6573 39.7179 39.1606 39.5811 38.6582 39.467C38.6582 39.2332 38.7039 38.9994 38.7324 38.7656C39.1435 39.0336 39.5488 39.3359 39.9428 39.5982C40.0113 39.6894 40.0741 39.7807 40.1426 39.8662" fill="#F498BB"/>
<path d="M55.2188 70.9184C52.5008 70.4396 49.887 69.4921 47.4941 68.1184C48.4718 65.9362 49.1072 63.6166 49.3782 61.2412C51.6358 62.6954 54.1271 63.7505 56.7431 64.3605C56.5519 66.6081 56.0385 68.8166 55.2188 70.9184Z" fill="#004363"/>
<path d="M47.4883 68.1172C45.4112 66.9274 43.5314 65.4231 41.916 63.6578C42.6272 61.824 43.1048 59.9081 43.3376 57.9553C43.4233 57.2482 43.4746 56.5468 43.4975 55.8511C43.9257 56.4213 44.3824 56.9346 44.862 57.4592C46.202 58.9021 47.7171 60.1721 49.3723 61.2399C49.102 63.6155 48.4666 65.9352 47.4883 68.1172" fill="#F38EB3"/>
<path d="M37.7725 39.7527C37.6184 39.5761 37.4644 39.3995 37.3047 39.2285C37.3047 39.2285 37.3047 39.2285 37.3047 39.1943C37.5785 39.2399 37.8752 39.2912 38.1205 39.3482L37.7611 39.7527" fill="#004363"/>
<path d="M36.8084 40.9502C36.8084 40.8361 36.8084 40.7278 36.8084 40.6137C36.9569 40.1461 37.1225 39.6842 37.2994 39.228C37.4593 39.3991 37.6134 39.5759 37.7676 39.7527C37.4307 40.1404 37.111 40.5396 36.8027 40.9502" fill="#42C3D2"/>
<path d="M41.9167 63.657C37.9472 59.3378 35.7324 53.6956 35.7051 47.8326V47.6843C35.7051 47.5817 35.7051 47.4733 35.7051 47.3707C36.3643 45.2908 36.7332 43.1301 36.8013 40.9496C37.1096 40.5391 37.4293 40.1399 37.7661 39.7578C38.0459 40.0772 38.337 40.4079 38.5825 40.75C38.5825 40.9439 38.5825 41.1378 38.5825 41.3203V41.5712C38.6041 46.7353 40.3343 51.7475 43.5039 55.8275C43.5039 56.5232 43.4297 57.2246 43.3441 57.9317C43.1105 59.8844 42.6329 61.8002 41.9225 63.6342" fill="#FAE2EC"/>
<path d="M38.5879 40.751C38.3253 40.4088 38.0512 40.0781 37.7715 39.753L38.1312 39.3481L38.6564 39.4679C38.6222 39.8975 38.5993 40.3252 38.5879 40.751" fill="#F38EB3"/>
<path d="M56.7369 64.3591C54.1209 63.7492 51.6295 62.694 49.3719 61.2399C49.4695 60.3802 49.5209 59.516 49.5261 58.6509V58.4913C49.5208 57.6051 49.4675 56.7199 49.3662 55.8396C48.8887 51.6993 47.3118 47.7617 44.7988 44.4346C46.9467 46.0062 49.3464 47.2018 51.8954 47.9701C52.5955 48.8722 53.2272 49.8253 53.7852 50.8214C55.7689 54.3174 56.8169 58.265 56.8282 62.2834V62.4146C56.8282 63.0647 56.794 63.7148 56.7369 64.3591" fill="#0281AC"/>
<path d="M49.3746 61.24C47.7195 60.1722 46.2043 58.9021 44.8643 57.4592C44.3847 56.9346 43.928 56.3985 43.4998 55.8511C43.6714 50.4005 41.9351 45.0606 38.5898 40.7508C38.5898 40.3251 38.6127 39.8974 38.6584 39.4678C39.1608 39.5818 39.6518 39.7187 40.1428 39.8669C41.4821 41.5929 43.0515 43.1278 44.8072 44.429C47.3202 47.7561 48.8971 51.6937 49.3746 55.834C49.4758 56.7143 49.5292 57.5995 49.5345 58.4857V58.651C49.5292 59.5142 49.4777 60.3765 49.3803 61.2343" fill="#F5B0CE"/>
<path d="M43.4995 55.8509C40.3299 51.7709 38.5997 46.7587 38.5781 41.5946V41.3437C38.5781 41.1498 38.5781 40.9559 38.5781 40.7734C41.9233 45.0832 43.6596 50.4231 43.4881 55.8737" fill="#FDEDF4"/>
<path d="M38.9836 38.2356L38.8809 38.0759L39.2634 37.7167C39.7258 37.8934 40.1883 38.0588 40.6507 38.2014H40.2511C39.8286 38.2014 39.4061 38.2128 38.9836 38.2356ZM60.0451 48.9506C58.544 46.641 56.6528 44.6092 54.4557 42.9459C54.6841 42.9459 54.9125 42.9459 55.1408 42.9459C56.0565 42.9454 56.9714 42.894 57.8813 42.7919C62.5819 42.2552 67.0101 40.3111 70.5844 37.2148C72.3271 38.7212 73.8407 40.4732 75.0775 42.4155C71.0115 46.3194 65.6768 48.6346 60.0451 48.9392" fill="#1EBDC5"/>
<path d="M58.7929 48.9836C57.8388 48.9836 56.8856 48.9265 55.9383 48.8126C54.5647 48.6489 53.2083 48.3646 51.8847 47.9629C48.9542 44.1829 44.9389 41.3858 40.3749 39.9452L39.9181 39.5973C39.5813 39.1582 39.2616 38.702 38.959 38.2344C39.3815 38.2116 39.804 38.2002 40.2264 38.2002H40.6261L41.197 38.3656C45.0453 41.1998 49.6688 42.7916 54.4482 42.9276C56.6453 44.5909 58.5365 46.6227 60.0376 48.9323C59.6227 48.9551 59.2059 48.9665 58.7872 48.9665" fill="#47C4D4"/>
<path d="M40.3743 39.9447L40.1176 39.865C40.0492 39.7795 39.9807 39.6883 39.918 39.5972L40.3743 39.9447" fill="#FAE5EF"/>
<path d="M51.8988 47.9709C49.3524 47.1994 46.9564 45.9999 44.8137 44.4239C43.5474 42.7449 42.0633 41.2415 40.4004 39.9531C44.9602 41.3958 48.9713 44.1927 51.8988 47.9709" fill="#55C5D8"/>
<path d="M44.8108 44.416C43.0521 43.1163 41.4806 41.5813 40.1406 39.854L40.3975 39.9338C42.0604 41.2222 43.5445 42.7256 44.8108 44.4046" fill="#FDEDF4"/>
<path d="M39.3825 36.8887C39.1827 36.7063 38.9772 36.5181 38.7773 36.3185V36.2843C39.0133 36.3109 39.2474 36.3337 39.4796 36.3527L39.3597 36.883L39.3825 36.8887ZM70.5608 37.2195C68.5293 35.4663 66.2121 34.0737 63.7097 33.1023C65.471 31.4846 66.9746 29.6078 68.1686 27.5366C70.6902 28.6598 72.9954 30.2154 74.9797 32.1328C73.7578 34.029 72.2718 35.7417 70.5665 37.2195" fill="#F16785"/>
<path d="M55.1387 42.9557H54.4536C52.3316 41.35 49.9509 40.1177 47.4141 39.3118H47.985C53.8264 39.2598 59.4417 37.0497 63.7483 33.1074C66.2507 34.0788 68.5679 35.4714 70.5994 37.2246C67.0251 40.3209 62.5969 42.265 57.8963 42.8017C56.9864 42.9038 56.0715 42.9552 55.1558 42.9557" fill="#FADAE3"/>
<path d="M54.4543 42.9453C49.6744 42.8122 45.05 41.2201 41.2031 38.3833C43.223 38.9688 45.3119 39.2833 47.4148 39.3185C49.9513 40.1227 52.3319 41.3531 54.4543 42.9567" fill="#FAE5EF"/>
<path d="M48.01 23.1412C48.4148 21.8199 48.6995 20.4648 48.8607 19.0924C49.0254 17.7361 49.0712 16.368 48.9977 15.0037C52.7725 12.5624 57.1695 11.2541 61.6665 11.2344H61.9063C62.9416 11.2399 63.9753 11.3142 65.0007 11.4568C65.035 11.9301 65.0464 12.4034 65.0464 12.8824V12.9394C65.0451 14.7441 64.8363 16.5427 64.4241 18.2998C63.7561 18.2428 63.0824 18.2143 62.4087 18.2143C58.3648 18.213 54.3895 19.2582 50.8703 21.248C49.875 21.8106 48.9211 22.4433 48.0157 23.1412H48.01ZM38.8067 36.2912C38.6354 36.2912 38.4584 36.2513 38.2871 36.2228C38.2871 36.1601 38.2871 36.0973 38.2871 36.0346C38.7553 35.7324 39.212 35.413 39.6573 35.0823C39.3662 35.4758 39.0864 35.8806 38.8181 36.2912" fill="#025478"/>
<path d="M38.2693 36.0346C38.2407 35.4644 38.2293 34.9283 38.2407 34.3695C38.2978 34.187 38.3549 34.0045 38.4063 33.7992C41.2437 29.9533 42.8372 25.3334 42.9737 20.558C43.8107 19.4611 44.7389 18.4368 45.7484 17.4958C46.7515 16.5667 47.8327 15.7254 48.9798 14.981C49.0534 16.3452 49.0075 17.7133 48.8428 19.0697C48.6817 20.4421 48.397 21.7971 47.9921 23.1184C44.2071 26.0402 41.4064 30.0474 39.9649 34.6033L39.6223 35.0595C39.177 35.3903 38.7203 35.7096 38.2521 36.0118" fill="#47C4D4"/>
<path d="M38.4062 33.8218C38.9917 31.8041 39.3065 29.7178 39.3426 27.6174C40.1507 25.0876 41.3844 22.7137 42.9908 20.5977C42.8543 25.3731 41.2608 29.9929 38.4234 33.8389" fill="#FAE5EF"/>
<path d="M38.242 34.3683C38.242 34.26 38.242 34.1461 38.242 34.0321L38.4018 33.8213C38.3504 34.0036 38.2934 34.186 38.2363 34.3911" fill="#55C5D8"/>
<path d="M38.2461 34.033C38.3142 31.8544 38.683 29.6955 39.3423 27.6177C39.3062 29.718 38.9914 31.8044 38.406 33.822L38.2461 34.033Z" fill="#FDEDF4"/>
<path d="M39.5011 36.3591C39.2689 36.3591 39.0348 36.3363 38.7988 36.2907C39.0672 35.8801 39.3698 35.4752 39.6381 35.0818L39.9007 34.8765C39.7523 35.3669 39.621 35.863 39.5011 36.3591" fill="#F498BB"/>
<path d="M39.6387 35.0813L39.9809 34.6255C39.9524 34.711 39.9296 34.7964 39.9011 34.8762L39.6387 35.0813Z" fill="#FAE5EF"/>
<path d="M39.2627 37.7056H39.2285C39.2742 37.4378 39.3255 37.1358 39.3825 36.8965L39.7933 37.2555C39.6107 37.4093 39.4396 37.5631 39.2627 37.7227" fill="#004363"/>
<path d="M40.9859 38.2111H40.6491C40.1866 38.0628 39.7242 37.9032 39.2617 37.7264C39.4387 37.5667 39.61 37.4128 39.7927 37.2588C40.1809 37.5895 40.5806 37.9146 40.9859 38.2225" fill="#42C3D2"/>
<path d="M41.2033 38.3711L40.6328 38.2002H40.9694L41.1862 38.3597" fill="#55C5D8"/>
<path d="M39.8036 37.2485L39.3926 36.8892L39.5125 36.3589C39.9407 36.3988 40.3689 36.4216 40.7971 36.433C40.4602 36.6953 40.1291 36.9691 39.8036 37.2485Z" fill="#F38EB3"/>
<path d="M47.9623 39.3136H47.3914C45.3091 38.6551 43.1458 38.2866 40.9628 38.2187C40.5574 37.9107 40.1578 37.5857 39.7695 37.255C40.095 36.9755 40.4261 36.6847 40.7629 36.4395H41.3339H41.625C46.7947 36.4145 51.8117 34.6867 55.8982 31.5239C56.5947 31.5239 57.297 31.5981 58.0049 31.6836C59.9599 31.9166 61.878 32.3936 63.7142 33.1035C59.4076 37.0457 53.7923 39.2559 47.9509 39.3079" fill="#FAE2EC"/>
<path d="M47.4169 39.3078C45.314 39.2726 43.2251 38.9581 41.2052 38.3726L40.9883 38.2129C43.1714 38.2809 45.3346 38.6493 47.4169 39.3078" fill="#FDEDF4"/>
<path d="M68.1842 27.5426C65.9999 26.5647 63.6773 25.9299 61.2988 25.6608C62.7519 23.4085 63.8082 20.9243 64.4218 18.3159C66.6717 18.509 68.8825 19.0217 70.9874 19.8385C70.5116 22.556 69.5629 25.1692 68.1842 27.5597" fill="#004363"/>
<path d="M63.7261 33.108C61.89 32.3981 59.9719 31.9211 58.0169 31.688C57.3089 31.6025 56.6067 31.5455 55.9102 31.5284C56.4621 31.1026 56.9987 30.6464 57.5202 30.1598C58.9661 28.8226 60.2378 27.3091 61.3054 25.6548C63.6837 25.9286 66.0058 26.5652 68.1908 27.5423C66.9968 29.6135 65.4932 31.4903 63.7318 33.108" fill="#F38EB3"/>
<path d="M44.457 30.2181C46.0373 28.0794 47.2384 25.6858 48.0082 23.1413C48.9136 22.4434 49.8675 21.8107 50.8628 21.2481C54.382 19.2583 58.3573 18.2131 62.4012 18.2144C63.0749 18.2144 63.7486 18.2429 64.4166 18.2999C63.8048 20.9142 62.7485 23.4043 61.2936 25.6618C60.4354 25.5587 59.5718 25.5073 58.7073 25.5079H58.5418C57.6544 25.5074 56.7679 25.5607 55.887 25.6675C51.7417 26.1445 47.7995 27.7195 44.4685 30.2295" fill="#0281AC"/>
<path d="M39.9805 34.6255C41.4219 30.0696 44.2227 26.0624 48.0077 23.1406C47.2379 25.6851 46.0368 28.0787 44.4565 30.2174C42.7742 31.4807 41.2688 32.9632 39.9805 34.6255" fill="#55C5D8"/>
<path d="M40.7865 36.433C40.3583 36.433 39.9301 36.3988 39.502 36.3589C39.6218 35.8628 39.7532 35.3667 39.9016 34.8762C41.6321 33.5414 43.1692 31.9735 44.469 30.2173C47.8001 27.7073 51.7423 26.1322 55.8875 25.6553C56.7687 25.5513 57.6551 25.498 58.5423 25.4956H58.7079C59.572 25.4989 60.4354 25.5484 61.2942 25.6439C60.2266 27.2981 58.9548 28.8117 57.5089 30.1489C56.9913 30.6355 56.4546 31.0917 55.8989 31.5175H55.2823H55.0368C49.8673 31.5433 44.8506 33.271 40.7637 36.433" fill="#F5B0CE"/>
<path d="M39.902 34.8548L39.982 34.6038C41.2703 32.9415 42.7757 31.459 44.458 30.1958C43.1583 31.952 41.6212 33.5199 39.8906 34.8548" fill="#FDEDF4"/>
<path d="M41.6433 36.4444H41.3522H40.7812C44.8681 33.2823 49.8849 31.5546 55.0544 31.5288H55.2999H55.9165C51.8304 34.6924 46.8132 36.4203 41.6433 36.4444" fill="#FDEDF4"/>
<path d="M35.8085 37.2665C35.3517 37.0954 34.8893 36.9301 34.4211 36.7818H34.8265C35.249 36.7818 35.6714 36.7704 36.0939 36.7476L36.191 36.9072C36.0654 37.027 35.9398 37.1468 35.8085 37.2608V37.2665ZM4.49318 37.7512C2.75061 36.2469 1.23697 34.4968 0 32.5562C4.06547 28.6507 9.40015 26.3336 15.0325 26.0269C15.7749 27.1747 16.6175 28.2548 17.5503 29.2545C18.4913 30.2676 19.5191 31.1968 20.6218 32.0316H19.931C14.272 32.04 8.80328 34.0732 4.51603 37.7626" fill="#1EBDC5"/>
<path d="M34.8032 36.7878H34.3978L33.8269 36.6225C29.9785 33.7886 25.355 32.1968 20.5757 32.0605C19.4729 31.2257 18.4452 30.2965 17.5041 29.2833C16.5713 28.2836 15.7288 27.2036 14.9863 26.0557C15.3803 26.0557 15.7799 26.0272 16.1739 26.0215H16.2995C17.2287 26.0277 18.1569 26.0848 19.0799 26.1926C20.453 26.359 21.8092 26.6433 23.1334 27.0422C26.0715 30.8208 30.0954 33.6123 34.6661 35.0429L35.1229 35.385C35.454 35.8298 35.7794 36.286 36.082 36.7536C35.6595 36.7764 35.2371 36.7878 34.8146 36.7878" fill="#47C4D4"/>
<path d="M35.1107 35.3853L34.6543 35.0435L34.9053 35.1175L35.1107 35.3853Z" fill="#FAE5EF"/>
<path d="M34.6664 35.041C30.1052 33.5981 26.0936 30.7989 23.168 27.0176C25.7148 27.7908 28.1108 28.9923 30.2532 30.5702C31.521 32.2479 33.0049 33.7511 34.6664 35.041" fill="#55C5D8"/>
<path d="M34.9068 35.1157L34.6556 35.0416C32.9944 33.7531 31.5123 32.2497 30.248 30.5708C32.0048 31.8689 33.5726 33.4042 34.9068 35.1328" fill="#FDEDF4"/>
<path d="M36.2533 38.6919L35.5511 38.6235L35.671 38.0988C35.8708 38.2813 36.0763 38.4695 36.2705 38.6691V38.7033L36.2533 38.6919ZM6.88491 47.4567C4.3569 46.3259 2.04609 44.7627 0.0566406 42.8376C1.27857 40.9415 2.76457 39.2287 4.46989 37.751C6.49989 39.5062 8.8175 40.899 11.321 41.8682C9.55816 43.4866 8.05436 45.3656 6.86208 47.4395" fill="#F16785"/>
<path d="M11.3257 41.8751C8.82221 40.9059 6.50461 39.5131 4.47461 37.7579C8.76186 34.0685 14.2306 32.0353 19.8896 32.0269H20.5804C22.7017 33.6323 25.0826 34.8628 27.6199 35.6651H27.0776C23.0743 35.6844 19.1429 36.7289 15.6591 38.6988C14.0843 39.585 12.6152 40.6468 11.28 41.8637" fill="#FADAE3"/>
<path d="M33.8488 36.6143C31.8298 36.0241 29.7406 35.7076 27.6372 35.6734C25.0999 34.8711 22.7189 33.6406 20.5977 32.0352C25.377 32.1715 30.0004 33.7633 33.8488 36.5972" fill="#FAE5EF"/>
<path d="M35.4137 39.908C35.703 39.5088 35.9827 39.1039 36.253 38.6934L36.7725 38.7618C36.7725 38.8245 36.7725 38.8872 36.7725 38.95C36.3044 39.2541 35.8476 39.5734 35.4023 39.908H35.4137ZM13.2561 63.7502C12.1791 63.7494 11.1034 63.677 10.0361 63.5335C10.0361 63.0602 9.99609 62.5869 9.99609 62.1136V62.0395C9.99776 60.2367 10.2066 58.44 10.6184 56.6848C11.2864 56.7418 11.9601 56.7703 12.6338 56.7703C16.6777 56.7716 20.653 55.7264 24.1722 53.7366C25.1671 53.1754 26.121 52.5447 27.0268 51.8491C26.6271 53.1694 26.3444 54.5223 26.1818 55.8921C26.0684 56.8154 26.0112 57.7447 26.0106 58.675V58.8061C26.0106 59.2053 26.0106 59.5988 26.0106 59.9979C22.2025 62.4583 17.7629 63.7654 13.2275 63.7616" fill="#025478"/>
<path d="M26.0508 59.9863C26.0508 59.5871 26.0508 59.1936 26.0508 58.7945V58.6747C26.0515 57.7445 26.1087 56.8152 26.2221 55.8919C26.3846 54.5221 26.6673 53.1692 27.067 51.8488C30.8543 48.9256 33.657 44.9164 35.1 40.3582L35.4425 39.9077C35.8878 39.5732 36.3446 39.2538 36.8127 38.9497C36.8127 39.52 36.8527 40.0617 36.8127 40.6148C36.7556 40.7973 36.6985 40.9798 36.6472 41.1851C33.8104 45.0314 32.2169 49.6511 32.0798 54.4263C31.2458 55.5257 30.3174 56.5504 29.3051 57.4886C28.2997 58.4191 27.2167 59.2623 26.0679 60.0091" fill="#47C4D4"/>
<path d="M32.0625 54.4029C32.1997 49.6276 33.7932 45.0079 36.6299 41.1616C36.0446 43.1905 35.7354 45.2889 35.7107 47.4002C34.9038 49.9341 33.67 52.3119 32.0625 54.4314" fill="#FAE5EF"/>
<path d="M36.6465 41.1621C36.6978 40.9797 36.7549 40.7974 36.8119 40.5923C36.8119 40.7062 36.8119 40.8145 36.8119 40.9285C36.8119 41.0424 36.7035 41.0709 36.6522 41.1393" fill="#55C5D8"/>
<path d="M35.7109 47.3986C35.7437 45.2961 36.0587 43.2074 36.6473 41.1885C36.6986 41.1201 36.75 41.046 36.8071 40.9775C36.7391 43.158 36.3702 45.3187 35.7109 47.3986" fill="#FDEDF4"/>
<path d="M35.1523 40.1052C35.3008 39.6148 35.4321 39.1244 35.552 38.6226L36.2542 38.691C35.9859 39.1073 35.6833 39.5064 35.415 39.9056L35.1523 40.1052" fill="#F498BB"/>
<path d="M35.0723 40.3569C35.0723 40.2771 35.1236 40.1916 35.1521 40.1062L35.4145 39.9067L35.0723 40.3569Z" fill="#FAE5EF"/>
<path d="M35.6705 38.0913L35.2598 37.7381L35.7846 37.2651H35.8245C35.7789 37.5386 35.7276 37.8349 35.6705 38.0742" fill="#004363"/>
<path d="M35.2382 37.7386C34.8499 37.4022 34.4503 37.0828 34.0449 36.7749H34.3761C34.8442 36.9232 35.3067 37.0885 35.7634 37.2596L35.2382 37.7329" fill="#42C3D2"/>
<path d="M34.398 36.7801H34.0957L33.8789 36.6206L34.4494 36.7858" fill="#55C5D8"/>
<path d="M10.6301 56.6824C8.3802 56.4893 6.16938 55.9766 4.06445 55.1598C4.54033 52.4442 5.4891 49.8328 6.8677 47.4443C9.053 48.4195 11.3751 49.0542 13.7531 49.3262C12.2972 51.5811 11.2408 54.0695 10.6301 56.6824" fill="#004363"/>
<path d="M13.7545 49.3272C11.3766 49.0552 9.05444 48.4206 6.86914 47.4454C8.06142 45.3714 9.56523 43.4924 11.3281 41.874C13.1632 42.5884 15.0816 43.0674 17.0373 43.2997C17.7453 43.3852 18.4475 43.4365 19.144 43.4593C18.5731 43.887 18.0536 44.3375 17.534 44.8222C16.0881 46.1594 14.8164 47.6729 13.7488 49.3272" fill="#F38EB3"/>
<path d="M19.15 43.4592C18.4534 43.4592 17.7512 43.3851 17.0432 43.2995C15.0882 43.0665 13.1701 42.5895 11.334 41.8796C12.6675 40.6591 14.1368 39.5953 15.713 38.709C19.1968 36.7392 23.1282 35.6946 27.1315 35.6753H27.6739C29.7534 36.3378 31.9151 36.7082 34.0968 36.7759C34.5021 37.0838 34.9018 37.4032 35.29 37.7396C34.9646 38.019 34.6335 38.3098 34.2966 38.5494H33.406C28.2509 38.5784 23.2497 40.3063 19.1785 43.4649" fill="#FAE2EC"/>
<path d="M34.0946 36.7759C31.911 36.7088 29.7474 36.3383 27.666 35.6753C29.7694 35.7095 31.8587 36.026 33.8777 36.6162L34.0946 36.7759Z" fill="#FDEDF4"/>
<path d="M35.5522 38.6236C35.124 38.5894 34.6958 38.5666 34.2676 38.5495C34.6044 38.2872 34.9356 38.0192 35.261 37.7397C35.398 37.8538 35.535 37.9736 35.6721 38.099L35.5522 38.6236Z" fill="#F38EB3"/>
<path d="M12.6386 56.7683C11.9706 56.7683 11.2969 56.7398 10.6289 56.6827C11.2396 54.0698 12.296 51.5814 13.7519 49.3265C14.6259 49.4241 15.5044 49.4755 16.3838 49.4805H16.4638C17.3642 49.4751 18.2638 49.4218 19.1585 49.3208C23.3038 48.8438 27.246 47.2688 30.5771 44.7588C28.9957 46.8989 27.7944 49.2946 27.0259 51.8413C26.119 52.5354 25.1652 53.1661 24.1713 53.7288C20.6504 55.7196 16.673 56.7648 12.6271 56.7626" fill="#0281AC"/>
<path d="M27.0391 51.847C27.812 49.301 29.0149 46.9057 30.5959 44.7645C32.2782 43.5013 33.7836 42.0187 35.072 40.3564C33.629 44.9147 30.8263 48.9238 27.0391 51.847" fill="#55C5D8"/>
<path d="M16.4661 49.4807H16.3976C15.5182 49.4757 14.6396 49.4243 13.7656 49.3267C14.8332 47.6725 16.105 46.1589 17.5509 44.8218C18.0704 44.337 18.6071 43.8865 19.1609 43.4589H19.8003H19.9944C25.1646 43.4314 30.1814 41.7017 34.2676 38.5376C34.6958 38.5376 35.124 38.5775 35.5522 38.6117C35.4323 39.1135 35.3009 39.604 35.1525 40.0944C33.422 41.4293 31.8849 42.9971 30.5851 44.7533C27.254 47.2633 23.3118 48.8384 19.1666 49.3153C18.2718 49.4163 17.3723 49.4696 16.4718 49.475" fill="#F5B0CE"/>
<path d="M30.5957 44.7654C31.8955 43.0092 33.4326 41.4413 35.1631 40.1064C35.1631 40.192 35.1117 40.2775 35.0832 40.3573C33.7948 42.0196 32.2894 43.5022 30.6071 44.7654" fill="#FDEDF4"/>
<path d="M19.982 43.4703H19.7879H19.1484C23.2196 40.3116 28.2209 38.5837 33.3759 38.5547H34.2665C30.1804 41.7188 25.1636 43.4485 19.9934 43.476" fill="#FDEDF4"/>
<path d="M41.1822 34.9176C41.6924 35.639 41.9769 36.4953 41.9997 37.3782C42.0226 38.2611 41.7828 39.1309 41.3107 39.8777C40.8386 40.6244 40.1554 41.2146 39.3474 41.5735C38.5395 41.9324 37.6432 42.0439 36.7718 41.8939C35.9004 41.7439 35.0931 41.3392 34.452 40.7309C33.8109 40.1226 33.3648 39.3381 33.1702 38.4766C32.9756 37.615 33.0411 36.7152 33.3585 35.8909C33.6759 35.0665 34.2309 34.3547 34.9534 33.8455C35.4327 33.5068 35.9741 33.2658 36.5467 33.1364C37.1193 33.0069 37.7119 32.9916 38.2904 33.0911C38.869 33.1907 39.4222 33.4033 39.9184 33.7167C40.4146 34.0301 40.8441 34.4382 41.1822 34.9176" fill="white"/>
<path d="M39.9985 35.7482C40.3428 36.2369 40.5344 36.8166 40.549 37.414C40.5635 38.0114 40.4005 38.5998 40.0804 39.1046C39.7603 39.6095 39.2975 40.0083 38.7506 40.2505C38.2036 40.4928 37.5971 40.5676 37.0075 40.4657C36.418 40.3637 35.872 40.0894 35.4385 39.6775C35.005 39.2657 34.7034 38.7347 34.572 38.1517C34.4405 37.5687 34.4851 36.9598 34.7 36.4021C34.9149 35.8444 35.2905 35.3628 35.7793 35.0183C36.1042 34.7892 36.4712 34.6264 36.8592 34.5392C37.2471 34.4519 37.6485 34.4419 38.0404 34.5097C38.4322 34.5775 38.8069 34.7217 39.1428 34.9343C39.4788 35.1468 39.7696 35.4234 39.9985 35.7482" fill="#F16785"/>
<path d="M108.599 53.074V49.0125H102.962C101.03 49.0125 99.6208 49.0125 98.1311 47.7659C96.4804 46.3584 96.1986 44.6293 96.1986 42.4578V22.5122H91.6895V42.2165C91.6895 46.077 92.4947 49.0125 95.635 51.2644C97.5272 52.6719 99.7013 53.074 101.392 53.074H108.599Z" fill="#044363"/>
<path d="M117.274 27.1769C117.354 24.0403 112.523 23.8794 112.322 27.1367C112.12 30.1124 117.153 30.5548 117.274 27.1769ZM117.113 53.0338V31.8416H112.845V53.0338H117.113Z" fill="#044363"/>
<path d="M141.837 31.8416H137.489L131.45 47.8463L125.411 31.8416H121.022L128.43 50.9427C128.994 52.31 130 53.4761 131.49 53.3957C133.261 53.3555 134.308 51.7068 135.033 49.8972L141.837 31.8416Z" fill="#044363"/>
<path d="M150.143 27.1769C150.223 24.0403 145.392 23.8794 145.191 27.1367C144.989 30.1124 150.022 30.5548 150.143 27.1769ZM149.982 53.0338V31.8416H145.714V53.0338H149.982Z" fill="#044363"/>
<path d="M177.001 53.074V42.6187C177.001 37.1497 172.934 31.9622 166.211 31.7612C159.729 31.4395 155.341 36.4259 155.059 42.2165C154.777 48.2485 159.568 52.8729 165.164 53.4761C167.741 53.7174 171.364 52.0687 171.646 51.948V47.7659C171.364 48.0474 168.264 49.8972 165.929 49.7765C162.104 49.4146 159.326 46.6802 159.165 43.0208C158.924 39.0799 161.943 35.2999 165.889 35.4205C166.211 35.4205 172.975 35.4205 172.934 43.9859V53.074H177.001Z" fill="#044363"/>
</svg>
