<svg width="248" height="248" viewBox="0 0 248 248" fill="none" xmlns="http://www.w3.org/2000/svg">
<path d="M124 248C192.484 248 248 192.483 248 124C248 55.5165 192.484 0 124 0C55.517 0 0 55.5165 0 124C0 192.483 55.517 248 124 248Z" fill="#D0EAEF"/>
<mask id="mask0" mask-type="alpha" maskUnits="userSpaceOnUse" x="0" y="0" width="248" height="248">
<path d="M124 248C192.484 248 248 192.483 248 124C248 55.5165 192.484 0 124 0C55.517 0 0 55.5165 0 124C0 192.483 55.517 248 124 248Z" fill="#D0EAEF"/>
</mask>
<g mask="url(#mask0)">
</g>
<mask id="mask1" mask-type="alpha" maskUnits="userSpaceOnUse" x="0" y="0" width="248" height="248">
<path d="M124 248C192.484 248 248 192.483 248 124C248 55.5165 192.484 0 124 0C55.517 0 0 55.5165 0 124C0 192.483 55.517 248 124 248Z" fill="#D0EAEF"/>
</mask>
<g mask="url(#mask1)">
<path d="M73.1982 4.62939C73.1982 4.62939 62.8406 58.8013 63.144 63.7417C63.4473 68.6821 56.1885 80.9678 55.3867 85.6483C53.964 94.3196 53.0523 103.068 52.6565 111.846C52.3315 121.51 47.5642 150.025 47.3475 152.734C47.1309 155.442 46.5241 157.718 46.5241 159.495C46.6765 161.015 46.6765 162.546 46.5241 164.066C46.1991 165.41 43.8156 175.702 43.0789 177.068C42.5071 177.977 42.1582 179.01 42.0605 180.08C42.0605 180.817 42.884 183.72 42.884 185.28C42.884 186.84 43.404 191.629 44.2274 192.041C45.0508 192.453 50.728 196.375 51.313 196.505C51.8981 196.635 53.003 197.024 53.003 197.024C53.003 197.024 55.1699 198.39 55.7766 197.956C56.3833 197.523 56.2966 194.944 56.2966 194.944V184.761C55.6241 183.28 55.1996 181.698 55.04 180.08C55.2566 178.823 55.8849 177.068 56.2966 175.291C56.7083 173.514 57.0334 166.624 56.2966 165.215C55.5599 163.807 85.3976 91.131 85.3976 91.131L97.3803 8.05319L73.1982 4.62939Z" fill="#F7E3ED"/>
<path opacity="0.56" d="M77.9876 19.0181C77.9876 19.0181 77.5976 53.9046 76.3841 65.3239C75.4741 73.9913 68.1935 83.4821 65.8967 92.4096C59.9812 115.357 56.4492 141.12 56.4492 141.12C56.4492 141.12 97.6194 73.7747 97.6194 72.4096C97.6194 71.0444 77.9876 19.0181 77.9876 19.0181Z" fill="#E3C3D1"/>
<path d="M81.2802 72.2581C81.2802 72.2581 66.3722 98.4767 61.9301 121.25C58.6798 138.022 144.27 152.366 144.27 152.366L173.176 135.031V126.364L173.371 122.94C173.371 122.94 178.073 113.666 178.073 108.184C178.073 102.701 178.073 93.5573 178.073 93.5573L180.24 90.5028L164.444 80.7953L104.314 72.1279L81.2802 72.2581Z" fill="#FDEBF3"/>
<path opacity="0.56" d="M62.6674 117.718C67.9962 120.035 73.5721 121.736 79.2869 122.788C98.5503 126.45 111.79 124.955 127.196 122.485C159.937 117.046 176.08 119.365 176.08 119.365L174.109 126.775C174.109 126.775 135.842 135.616 107.586 132.258C79.3304 128.899 61.8223 121.25 61.8223 121.25L62.6674 117.718Z" fill="#E3C3D1"/>
<path d="M177.142 111.564L176.838 108.617L178.138 109.31L177.142 111.564Z" fill="#C2163F"/>
<path d="M70.077 95.3345L69.9902 92.8418L71.0737 93.2978L70.077 95.3345Z" fill="#C2163F"/>
<path d="M176.752 109.961C176.752 109.961 177.185 109.961 164.184 107.664C142.797 103.872 115.517 109.354 89.861 104.197C82.8481 102.36 76.0107 99.9095 69.4277 96.8733L71.5946 92.5396L134.997 99.7987C134.997 99.7987 161.822 101.099 162.429 101.25C163.036 101.402 176.903 105.822 176.903 105.822L176.752 109.961Z" fill="#F6DAE7"/>
<path d="M77.2495 127.383L76.8594 125.41C77.1267 124.699 77.5574 124.061 78.1163 123.547C78.6144 123.169 79.1354 122.821 79.6764 122.507L78.7879 117.891L80.7815 117.22L80.9981 115.269L83.4684 115.443L84.6817 113.276L86.3719 114.056L87.3688 112.756C88.1605 113.406 88.8862 114.132 89.5357 114.923L90.4673 116.656C90.4673 116.656 91.9841 116.223 92.9809 116.028C93.5288 115.91 94.0909 115.874 94.6494 115.92L95.1044 118.195L97.0112 118.563L97.4878 121.098L99.0048 122.442L98.7014 124.327L100.11 125.888C100.11 125.888 98.8312 128.726 97.9428 129.202C97.0544 129.679 77.2495 127.383 77.2495 127.383Z" fill="#E3B9CB"/>
<path d="M117.532 128.487C117.532 128.487 113.957 125.952 113.913 125.367C113.87 124.782 115.148 123.959 115.148 123.959L114.736 121.792L116.622 120.318L116.448 117.934L118.615 117.502L118.918 115.616C120.236 115.492 121.564 115.557 122.862 115.811L124.314 116.483C124.795 115.479 125.431 114.558 126.199 113.753C126.664 113.414 127.149 113.102 127.651 112.821L129.189 113.991L131.356 113.579L132.635 115.595L135.17 115.399L135.495 117.111L138.052 118.151C138.012 119.075 137.867 119.991 137.618 120.882C137.25 121.987 136.99 122.919 136.99 122.919C137.761 123.308 138.488 123.78 139.157 124.327C139.534 124.775 139.807 125.3 139.959 125.865L119.33 129.484L117.532 128.487Z" fill="#E3B9CB"/>
<path d="M153.719 118.368C152.856 115.991 152.516 113.455 152.722 110.935C152.935 109.856 153.419 108.849 154.127 108.008C154.836 107.166 155.747 106.519 156.774 106.125C158.151 105.866 159.57 105.941 160.913 106.342C161.201 106.479 161.451 106.685 161.64 106.942C161.829 107.199 161.952 107.499 161.996 107.815H162.928C162.928 107.815 163.253 105.649 160.046 104.955C158.936 104.681 157.774 104.698 156.673 105.006C155.572 105.313 154.569 105.901 153.762 106.71C152.328 108.378 151.557 110.514 151.595 112.713C151.758 114.881 152.188 117.02 152.874 119.083L153.719 118.368Z" fill="#E3B9CB"/>
<path d="M76.9468 127.685L76.5566 125.692C76.8384 124.988 77.267 124.353 77.8136 123.828C78.3156 123.455 78.8363 123.108 79.3737 122.788L78.4852 118.194L80.5005 117.501L80.6954 115.551L83.1656 115.746L84.3792 113.579L86.0691 114.359L87.0661 113.059C87.8633 113.702 88.5897 114.428 89.2329 115.225C89.5796 115.81 90.1645 116.96 90.1645 116.96C90.1645 116.96 91.7031 116.504 92.6781 116.309C93.238 116.22 93.8085 116.22 94.3684 116.309L94.8016 118.476L96.7085 118.845L97.2068 121.401L98.7021 122.723L98.4204 124.63L99.8289 126.19C98.8267 128.089 97.6048 129.863 96.1884 131.477C95.105 131.975 76.9468 127.685 76.9468 127.685Z" fill="white"/>
<path d="M117.164 128.791C117.164 128.791 113.567 126.234 113.545 125.67C113.524 125.107 114.78 124.24 114.78 124.24L114.347 122.073L116.232 120.599L116.059 118.217L118.226 117.783L118.507 115.876C119.824 115.752 121.153 115.817 122.451 116.071L123.903 116.764C124.385 115.756 125.029 114.834 125.81 114.034C126.266 113.693 126.743 113.381 127.24 113.102L128.8 114.272L130.967 113.839L132.245 115.876L134.78 115.68L135.105 117.371L137.662 118.432C137.635 119.357 137.489 120.275 137.229 121.163C136.86 122.268 136.601 123.2 136.601 123.2C137.368 123.587 138.094 124.052 138.767 124.587C139.152 125.033 139.433 125.558 139.591 126.125L118.962 129.744L117.164 128.791Z" fill="white"/>
<path opacity="0.41" d="M160.522 120.709C157.605 120.663 154.694 120.975 151.854 121.64C150.907 121.982 150.078 122.589 149.463 123.387C148.849 124.186 148.476 125.143 148.387 126.147C148.066 130.147 147.972 134.163 148.106 138.173C148.387 141.034 148.301 142.81 149.189 143.98C149.787 144.689 150.539 145.253 151.388 145.628C152.236 146.004 153.159 146.181 154.086 146.147C158.621 146.446 163.175 146.199 167.651 145.41C170.468 144.435 171.443 142.94 171.833 138.91C172.245 134.502 172.165 130.061 171.594 125.671C171.372 124.441 170.746 123.319 169.817 122.484C168.887 121.648 167.706 121.146 166.459 121.056C164.49 120.805 162.506 120.689 160.522 120.709Z" fill="#073F60"/>
<path d="M163.945 116.851L164.27 110.871V110.307C164.27 110.069 164.27 109.896 163.967 109.874H163.339V107.577L161.41 107.469L161.453 109.701H161.042C160.979 109.675 160.909 109.675 160.847 109.701C160.847 109.701 160.847 109.961 160.847 110.286C160.847 110.611 160.847 110.979 160.847 110.979L160.5 117.285L163.772 117.458L163.945 116.851Z" fill="#E3B9CB"/>
<path d="M178.139 109.289C178.966 106.436 179.403 103.483 179.44 100.513C179.786 94.3373 187.912 69.3328 189.624 62.5072C191.336 55.6816 199.158 21.5529 199.158 21.5529C199.158 21.5529 197.923 10.8278 194.824 5.62736C193.277 2.97289 191.554 0.424732 189.667 -2H82.2345L78.5076 2.98333C78.5076 2.98333 80.8912 10.8272 80.1978 13.1024C79.5044 15.3776 75.8641 23.1788 76.1458 30.0044C76.7193 34.895 78.458 39.576 81.2161 43.6552L82.2345 44.5439C82.2345 44.5439 81.4762 50.6106 82.3863 52.1924C83.2964 53.7742 84.3365 55.3782 84.3365 55.3782C84.3365 55.3782 82.8414 63.3088 82.6897 65.0422C82.6054 66.3916 82.6054 67.7441 82.6897 69.0934L76.5142 81.2502L70.0137 92.8431C70.0137 92.8431 86.8282 101.207 101.216 102.745C114.607 104.197 152.419 104.046 161.303 105.346C167.008 106.228 172.636 107.546 178.139 109.289Z" fill="#EC6285"/>
<path d="M178.983 103.2C168.984 99.6959 158.55 97.5818 147.976 96.9162C131.703 95.8761 120.998 98.433 100.305 96.9162C92.136 96.2878 71.0742 90.5892 71.0742 90.5892L72.8943 88.1187C72.8943 88.1187 95.6896 94.3371 105.397 94.7705C115.105 95.2039 138.181 94.7712 147.564 94.9229C154.92 95.1864 162.231 96.1947 169.384 97.934C172.618 98.7882 175.778 99.9043 178.832 101.271L178.983 103.2Z" fill="#F3A0BB"/>
<path d="M61.7793 121.25C71.63 123.852 81.6616 125.713 91.7901 126.818C104.575 127.793 117.099 128.66 134 125.28C150.902 121.9 165.615 120.058 169.147 121.314C171.164 122.009 173.027 123.091 174.629 124.5C174.629 124.5 173.22 140.318 175.019 144.912C176.817 149.505 177.186 165.475 179.873 182.311C182.56 199.147 182.148 247.686 179.57 257.306C176.991 266.927 126.178 265.974 126.178 265.974L107.587 208.726C104.336 208.726 106.763 222.55 106.763 222.55L107.998 264.955L51.465 260.621C51.465 260.621 44.7046 188.422 48.8649 169.094C53.0253 149.766 61.7793 121.25 61.7793 121.25Z" fill="#1D4C78"/>
<path opacity="0.29" d="M101.302 127.339L97.6187 128.986C97.6187 128.986 96.3184 138.866 98.2252 141.271C99.3581 142.651 100.066 144.329 100.262 146.103L99.2005 165.172L98.3337 180.86L95.9285 143.179L94.9102 126.992L101.302 127.339Z" fill="#073F60"/>
<path d="M58.291 135.465C58.291 135.465 76.4709 138.304 79.6561 139.495C82.8414 140.687 98.9412 143.482 98.9412 143.482C101.469 142.813 104.089 142.557 106.698 142.724C112.699 143.482 118.784 143.24 124.705 142.009C134.066 140.124 147.652 136.093 153.871 134.901C158.599 133.778 163.499 133.579 168.302 134.316C170.7 134.812 172.895 136.012 174.608 137.762" stroke="#073F60" stroke-width="4" stroke-miterlimit="10" stroke-linecap="round"/>
<path d="M110.88 143.027C110.259 148.559 109.977 154.123 110.034 159.69C110.533 162.962 111.335 176.873 108.669 181.358C106.465 184.505 103.477 187.022 100.002 188.661" stroke="#073F60" stroke-width="4" stroke-miterlimit="10" stroke-linecap="round"/>
<path d="M113.089 143.135C112.485 149.103 112.21 155.1 112.266 161.099C112.764 164.37 113.566 178.282 110.901 182.767C108.236 187.252 100.521 190.784 100.521 190.784" stroke="#073F60" stroke-width="4" stroke-miterlimit="10" stroke-linecap="round"/>
<path d="M171.725 135.573C171.725 135.573 173.588 146.949 173.891 151.413C174.195 155.876 176.427 182.788 175.582 195.031C174.737 207.274 173.588 230.676 173.588 230.676" stroke="#073F60" stroke-width="4" stroke-miterlimit="10" stroke-linecap="round"/>
<path d="M120.739 127.23C122.297 130.549 123.405 134.062 124.033 137.675C124.899 143.265 125.203 148.704 125.203 148.704L120.696 149.657C120.732 145.901 120.544 142.145 120.132 138.411C119.364 134.698 118.231 131.069 116.752 127.577L120.739 127.23Z" fill="#073F60"/>
<path d="M128.279 141.228C128.279 141.228 127.282 151.174 133.696 155.984C140.11 160.795 154.844 157.372 159.178 156.592C163.512 155.812 171.941 154.901 171.941 154.901" stroke="#073F60" stroke-width="4" stroke-miterlimit="10" stroke-linecap="round"/>
<path d="M126.784 141.922C126.784 141.922 126.09 152.518 132.504 157.328C138.918 162.139 153.956 159.496 158.29 158.759C162.623 158.022 171.919 156.96 171.919 156.96" stroke="#073F60" stroke-width="4" stroke-miterlimit="10" stroke-linecap="round"/>
<path d="M71.5086 138.086C71.5086 138.086 70.1651 148.379 65.2897 151.369C62.2077 153.215 58.8389 154.533 55.3223 155.269L52.5703 155.118" stroke="#073F60" stroke-width="4" stroke-miterlimit="10" stroke-linecap="round"/>
<path d="M56.4492 141.12L64.2932 141.554C62.8749 144.665 61.6376 147.855 60.5877 151.109C60.4235 151.866 60.4235 152.649 60.5877 153.406" stroke="#073F60" stroke-width="4" stroke-linecap="round" stroke-linejoin="round"/>
<path d="M55.2129 145.454L62.0383 146.407" stroke="#073F60" stroke-width="4" stroke-miterlimit="10" stroke-linecap="round"/>
<path d="M76.0578 145.627C76.4478 144.804 77.8347 139.928 80.0016 134.533C81.02 131.976 83.0352 128.032 83.0352 128.032L84.2268 125.865L79.6765 125.129C77.6118 129.071 75.8306 133.154 74.3461 137.349C73.3494 140.859 72.4824 145.193 72.4824 145.193C72.4824 145.193 75.6677 146.537 76.0578 145.627Z" fill="#073F60"/>
<path d="M104.704 138.432C106.666 138.432 108.258 136.842 108.258 134.88C108.258 132.917 106.666 131.326 104.704 131.326C102.741 131.326 101.15 132.917 101.15 134.88C101.15 136.842 102.741 138.432 104.704 138.432Z" fill="#073F60"/>
<path d="M153.285 118.369C152.422 115.992 152.082 113.457 152.288 110.936C152.498 109.853 152.98 108.841 153.689 107.996C154.398 107.151 155.31 106.5 156.34 106.104C157.72 105.863 159.136 105.946 160.479 106.343C160.767 106.48 161.017 106.686 161.206 106.943C161.396 107.2 161.518 107.5 161.562 107.816H162.494C162.494 107.816 162.819 105.65 159.612 104.956C158.503 104.669 157.338 104.68 156.234 104.988C155.131 105.296 154.128 105.891 153.328 106.712C151.895 108.379 151.124 110.515 151.161 112.714C151.324 114.882 151.754 117.021 152.44 119.084L153.285 118.369Z" fill="white"/>
<path d="M163.622 116.829L163.946 110.827V110.285C163.946 110.047 163.947 109.873 163.643 109.852H163.015L163.123 107.555L161.195 107.447L161.065 109.744H160.653C160.59 109.718 160.521 109.718 160.458 109.744C160.458 109.744 160.458 110.004 160.458 110.329C160.458 110.654 160.458 111.022 160.458 111.022L160.111 117.328L163.383 117.501L163.622 116.829Z" fill="white"/>
<path opacity="0.52" d="M160.284 117.632C157.367 117.581 154.456 117.894 151.617 118.563C150.678 118.906 149.857 119.512 149.25 120.306C148.643 121.101 148.277 122.053 148.193 123.049C147.838 127.011 147.736 130.992 147.89 134.967C148.193 137.805 148.085 139.582 148.995 140.752C149.585 141.454 150.326 142.012 151.163 142.388C152 142.763 152.91 142.945 153.827 142.919C156.34 143.049 164.509 143.136 167.305 142.182C170.1 141.229 171.075 139.712 171.444 135.682C171.856 131.31 171.776 126.905 171.205 122.55C170.987 121.328 170.368 120.212 169.446 119.381C168.524 118.549 167.351 118.048 166.113 117.957C164.179 117.716 162.232 117.608 160.284 117.632Z" fill="#073F60"/>
<path fill-rule="evenodd" clip-rule="evenodd" d="M176.363 139.668L168.345 141.271L164.488 137.154C164.84 136.483 165.44 135.976 166.161 135.741C166.882 135.506 167.666 135.562 168.345 135.897C169.667 136.482 171.097 134.576 172.137 135.442C172.722 134.901 174.478 136.049 175.366 136.114L176.666 133.406L179.786 136.028L176.363 139.668Z" fill="#E3C3D1"/>
<path fill-rule="evenodd" clip-rule="evenodd" d="M179.895 136.094L172.982 136.288L169.082 131.955C170.62 129.939 173.416 131.565 174.716 133.125C176.187 132.463 177.783 132.123 179.396 132.128L181.737 129.831L183.903 133.233L179.895 136.094Z" fill="#E3C3D1"/>
<path d="M161.455 116.808C158.64 116.767 155.831 117.074 153.091 117.719C152.178 118.048 151.377 118.63 150.782 119.397C150.187 120.165 149.823 121.086 149.732 122.053C149.385 125.921 149.291 129.808 149.451 133.688C149.732 136.44 149.624 138.174 150.512 139.301C151.078 140.003 151.8 140.564 152.619 140.94C153.439 141.316 154.335 141.497 155.236 141.468C159.626 141.752 164.034 141.512 168.367 140.753C171.097 139.821 172.051 138.348 172.398 134.469C172.805 130.198 172.732 125.895 172.181 121.64C171.964 120.452 171.359 119.37 170.462 118.563C169.564 117.755 168.423 117.268 167.219 117.178C165.309 116.919 163.383 116.795 161.455 116.808Z" fill="#34B9C5"/>
<path d="M161.173 133.427C162.908 133.427 164.315 132.021 164.315 130.285C164.315 128.55 162.908 127.143 161.173 127.143C159.438 127.143 158.031 128.55 158.031 130.285C158.031 132.021 159.438 133.427 161.173 133.427Z" fill="url(#paint0_linear)"/>
<path fill-rule="evenodd" clip-rule="evenodd" d="M183.123 128.64V128.747L177.316 138.974L170.685 141.012C166.742 141.749 164.315 142.724 164.986 145.172H171.595C171.595 145.172 178.746 143.113 179.353 142.897C182.433 140.577 185.365 138.067 188.129 135.378C188.519 134.685 199.374 118.043 199.851 114.338L199.44 104.912L183.123 128.64Z" fill="#E3C3D1"/>
<path fill-rule="evenodd" clip-rule="evenodd" d="M169.169 119.799L179.136 118.867L180.761 112.366L167.414 116.375L162.408 116.722C162.408 119.669 166.092 120.188 169.169 119.907V119.799Z" fill="#FDEBF3"/>
<path fill-rule="evenodd" clip-rule="evenodd" d="M248.389 79.7549L233.783 59.1265C233.783 59.1265 198.009 104.934 192.007 108.596C188.417 110.259 184.641 111.488 180.761 112.258C180.761 112.258 177.186 118.931 177.901 118.996C178.616 119.061 179.916 120.318 180.241 121.012C181.061 123.302 181.684 125.658 182.104 128.054C182.104 128.683 179.569 133.839 179.569 133.839L175.236 138.021L169.082 140.686C165.095 141.141 162.581 141.921 163.101 144.435H170.078L178.312 142.268L187.63 133.817C191.94 128.24 195.808 122.336 199.201 116.158C201.931 110.784 248.389 79.7549 248.389 79.7549Z" fill="#FDEBF3"/>
<path fill-rule="evenodd" clip-rule="evenodd" d="M163.34 143.915C163.34 143.915 166.568 142.464 166.85 144.219C166.525 143.612 165.788 143.244 163.34 143.915Z" fill="#E3C3D1"/>
<path d="M107.63 208.639C107.63 208.639 100.696 197.393 99.6773 186.299C98.6588 175.205 100.024 143.33 100.024 143.33L98.9406 143.481L98.1172 127.273" stroke="#073F60" stroke-width="4" stroke-miterlimit="10" stroke-linecap="round"/>
<path d="M102.256 256.027V225.129C102.256 208.639 107.131 208.639 107.131 208.639" stroke="#073F60" stroke-width="4" stroke-miterlimit="10" stroke-linecap="round"/>
<path fill-rule="evenodd" clip-rule="evenodd" d="M164.076 117.827C165.831 118.39 166.936 117.827 167.153 117.415C167.267 117.078 167.267 116.712 167.153 116.375L162.451 116.115C162.566 116.509 162.774 116.87 163.056 117.167C163.339 117.465 163.689 117.691 164.076 117.827Z" fill="#F3A0BB"/>
<path fill-rule="evenodd" clip-rule="evenodd" d="M164.381 143.026C165.811 142.615 166.742 143.135 166.916 143.525C167.013 143.813 167.013 144.125 166.916 144.413H163.059C163.148 144.092 163.316 143.797 163.546 143.555C163.777 143.314 164.063 143.131 164.381 143.026Z" fill="#F3A0BB"/>
</g>
<defs>
<linearGradient id="paint0_linear" x1="14328.9" y1="30031.9" x2="14328.9" y2="30013.7" gradientUnits="userSpaceOnUse">
<stop stop-color="#6BC5D4"/>
<stop offset="1" stop-color="#008E8C"/>
</linearGradient>
</defs>
</svg>
