<svg width="248" height="248" viewBox="0 0 248 248" fill="none" xmlns="http://www.w3.org/2000/svg">
<mask id="mask0" mask-type="alpha" maskUnits="userSpaceOnUse" x="0" y="0" width="248" height="248">
<path d="M124 248C192.484 248 248 192.483 248 124C248 55.5165 192.484 0 124 0C55.517 0 0 55.5165 0 124C0 192.483 55.517 248 124 248Z" fill="#D0EAEF"/>
</mask>
<g mask="url(#mask0)">
<path d="M124 248C192.484 248 248 192.483 248 124C248 55.5165 192.484 0 124 0C55.517 0 0 55.5165 0 124C0 192.483 55.517 248 124 248Z" fill="#D0EAEF"/>
<path d="M1.67694 32.5851C1.67694 32.5851 -24.3583 78.3536 -32.098 118.096C-37.8092 147.38 111.431 172.411 111.431 172.411L161.886 142.083L161.709 127.135L162.044 121.227C162.044 121.227 170.177 104.999 170.177 95.4084C170.177 85.8175 170.177 69.9049 170.177 69.9049L173.998 64.5679L146.427 47.6312L41.4585 32.4473L1.67694 32.5851Z" fill="#FDEBF3"/>
<path d="M-30.7013 111.952C-21.3899 115.995 -11.6521 118.975 -1.67263 120.834C31.925 127.215 54.9274 124.773 81.9276 120.283C139.04 110.79 167.281 114.827 167.281 114.827L163.874 127.747C163.874 127.747 97.0919 143.187 47.6801 137.337C-1.73172 131.488 -32.0996 118.097 -32.0996 118.097L-30.7013 111.952Z" fill="#E3C3D1"/>
<path d="M169.172 101.218L168.641 96.0581L170.905 97.2594L169.172 101.218Z" fill="#C2163F"/>
<path d="M168.502 98.4024C168.502 98.4024 169.27 98.4024 146.543 94.4636C109.243 87.8465 61.6236 97.4177 16.8398 88.3979C2.77844 85.5226 -18.8848 75.5772 -18.8848 75.5772L-15.2611 67.877L95.3985 80.5401C95.3985 80.5401 142.23 82.8049 143.294 83.0609C144.357 83.3169 168.581 91.0566 168.581 91.0566L168.502 98.4024Z" fill="#F6DAE7"/>
<path d="M-5.098 128.829L-5.76758 125.383C-5.33153 124.124 -4.61809 122.98 -3.68004 122.035C-2.80561 121.375 -1.8914 120.77 -0.942598 120.223L-2.4984 112.188L0.987388 111.006L1.36158 107.579L5.65484 107.914L7.78175 104.31L10.7358 105.669L12.4886 103.404C13.8192 104.503 15.0454 105.723 16.1516 107.048C16.7424 108.091 17.7665 110.081 17.7665 110.081C17.7665 110.081 20.4449 109.312 22.178 108.978C23.1355 108.776 24.1176 108.716 25.0926 108.8L25.8607 112.739L29.189 113.369L30.0555 117.82L32.6747 120.144L32.1627 123.453L34.6244 126.19C34.6244 126.19 32.3596 131.114 30.6857 131.96C29.0117 132.807 -5.098 128.829 -5.098 128.829Z" fill="#E3B9CB"/>
<path d="M65.1489 130.759C65.1489 130.759 58.906 126.328 58.8272 125.304C58.7485 124.28 60.9739 122.842 60.9739 122.842L60.2452 119.002L63.5341 116.441L63.2386 112.188L67.1774 111.439L67.6895 108.131C69.9846 107.906 72.3001 108.019 74.5626 108.465L77.1031 109.647C77.9407 107.896 79.0582 106.293 80.4116 104.901C81.8887 103.837 82.9325 103.247 82.9325 103.247L85.6305 105.216L89.4708 104.487L91.5978 108.249L96.0289 107.894L96.6 110.868L101.07 112.7C101.009 114.312 100.758 115.912 100.322 117.466C99.6525 119.435 99.1996 121.03 99.1996 121.03C100.597 121.698 101.918 122.517 103.138 123.472C103.803 124.249 104.287 125.164 104.556 126.15L68.556 132.413L65.1489 130.759Z" fill="#E3B9CB"/>
<path d="M128.287 112.975C128.287 112.975 125.57 105.531 126.554 99.997C126.919 98.1062 127.762 96.3404 129.003 94.8682C130.244 93.396 131.842 92.2666 133.644 91.5877C136.051 91.1563 138.526 91.2912 140.872 91.9816C141.391 92.2109 141.843 92.5676 142.188 93.0186C142.532 93.4697 142.757 94.0004 142.841 94.5615H144.436C144.436 94.5615 145.027 90.8197 139.414 89.5593C137.477 89.0707 135.445 89.0972 133.521 89.6361C131.597 90.175 129.847 91.2076 128.445 92.6315C125.889 95.5291 124.487 99.2648 124.506 103.128C124.784 106.907 125.525 110.637 126.712 114.236L128.287 112.975Z" fill="#E3B9CB"/>
<path d="M-5.86753 129.36L-6.53711 125.973C-6.06472 124.738 -5.31713 123.627 -4.35109 122.724C-3.48235 122.056 -2.5676 121.451 -1.61365 120.912L-3.13009 112.778L0.355729 111.597L0.729916 108.19L5.02316 108.505L7.15009 104.881L10.1042 106.24L11.8569 103.975C13.1916 105.077 14.4182 106.303 15.52 107.638C16.1108 108.682 17.1348 110.651 17.1348 110.651C17.1348 110.651 19.8132 109.883 21.5463 109.548C22.5039 109.347 23.486 109.287 24.4609 109.371L25.229 113.31L28.5573 113.94L29.4238 118.411L32.0431 120.715L31.4917 124.004L33.9534 126.741C33.9534 126.741 29.2466 135.131 27.612 135.978C25.9774 136.824 -5.86753 129.36 -5.86753 129.36Z" fill="white"/>
<path d="M64.48 131.271C64.48 131.271 58.2371 126.84 58.1583 125.816C58.0795 124.792 60.3049 123.354 60.3049 123.354L59.5763 119.415L62.8651 116.855L62.5697 112.68L66.41 111.932L66.9221 108.623C69.2172 108.399 71.5328 108.511 73.7952 108.958L76.3357 110.139C77.1645 108.427 78.2614 106.858 79.5852 105.492C81.0622 104.428 82.106 103.837 82.106 103.837L84.804 105.905L88.6444 105.157L90.8697 108.702L95.3008 108.347L95.872 111.321L100.342 113.153C100.283 114.765 100.031 116.365 99.5941 117.918C98.9245 119.888 98.4715 121.483 98.4715 121.483C99.8694 122.151 101.19 122.97 102.41 123.925C103.075 124.702 103.559 125.617 103.828 126.603L67.828 132.925L64.48 131.271Z" fill="white"/>
<path opacity="0.41" d="M140.183 117.171C136.008 117.171 127.894 117.663 125.097 118.805C123.441 119.402 121.991 120.462 120.92 121.858C119.848 123.254 119.199 124.929 119.051 126.683C118.468 133.651 118.297 140.648 118.539 147.637C119.031 152.62 118.854 155.751 120.508 157.799C122.163 159.847 124.625 161.285 129.036 161.541C133.447 161.797 147.804 161.915 152.668 160.241C157.533 158.567 159.286 155.908 159.955 148.897C160.625 141.886 160.526 129.105 159.542 125.797C158.557 122.488 156.804 118.471 150.601 117.722C147.145 117.297 143.664 117.112 140.183 117.171Z" fill="#073F60"/>
<path d="M146.13 110.454L146.721 99.977V99.0317C146.721 98.6181 146.721 98.2833 146.169 98.2636H145.559H145.047L145.283 94.3249L141.876 94.1279L141.659 98.0667H140.931C140.808 98.0789 140.692 98.1268 140.596 98.2046C140.478 98.3424 140.478 98.6575 140.438 99.2286C140.399 99.7997 140.34 100.45 140.34 100.45L139.729 111.439L145.441 111.754L146.13 110.454Z" fill="#E3B9CB"/>
<path d="M169.664 97.2599C171.117 92.2794 171.892 87.1257 171.968 81.9381C172.559 71.1655 186.758 27.4846 189.692 15.5699C192.627 3.65512 206.334 -55.899 206.334 -55.899C206.334 -55.899 204.207 -74.6278 198.732 -83.7067C196.023 -88.3372 193.003 -92.7785 189.692 -97H2.20732L-4.31136 -88.315C-4.31136 -88.315 -0.155947 -74.5294 -1.33758 -70.5906C-2.51921 -66.6518 -9.03786 -53.004 -8.44705 -41.0499C-7.85623 -29.0957 0.434856 -17.24 0.434856 -17.24L2.1876 -15.6842C2.1876 -15.6842 0.887812 -5.08893 2.46332 -2.3121C4.03882 0.464729 5.87037 3.22186 5.87037 3.22186C5.87037 3.22186 3.25109 17.0075 2.97538 20.1192C2.8325 22.4671 2.8325 24.8216 2.97538 27.1695L-7.77746 48.3995L-19.1211 68.625C-19.1211 68.625 10.2227 83.2182 35.3126 85.9162C58.7286 88.437 124.703 88.2007 140.222 90.4655C150.197 91.9643 160.041 94.2359 169.664 97.2599Z" fill="#EC6285"/>
<path d="M171.634 86.2903C154.431 80.3006 136.486 76.7089 118.303 75.6162C89.8453 73.7847 71.1953 78.2552 35.1359 75.4587C20.8776 74.3361 -15.8711 64.3907 -15.8711 64.3907L-12.7004 60.1172C-12.7004 60.1172 27.0614 70.9488 44.2147 71.6972C61.3681 72.4455 101.445 71.835 117.83 71.9532C134.216 72.0713 149.596 75.9904 155.898 77.2508C160.408 78.1567 160.152 77.6053 171.91 82.8242L171.634 86.2903Z" fill="#F3A0BB"/>
<path d="M-32.0988 118.096C-32.0988 118.096 -2.06572 126.111 20.2671 127.805C42.5999 129.498 64.4797 131.035 93.9416 125.107C123.404 119.179 149.084 116.008 155.308 118.214C158.823 119.416 162.068 121.296 164.859 123.748C164.859 123.748 162.417 151.319 165.568 159.394C168.719 167.468 169.389 195.276 174.036 224.679C178.684 254.082 177.975 338.785 173.485 355.564C168.995 372.343 80.2938 370.571 80.2938 370.571C80.2938 370.571 53.5299 279.979 47.1097 271.708C44.8646 268.813 44.6283 309.126 44.6283 309.126L48.5671 368.818L-50.0793 361.078C-50.0793 361.078 -61.8956 235.038 -54.6482 201.302C-47.4009 167.567 -32.0988 118.096 -32.0988 118.096Z" fill="#1D4C78"/>
<path opacity="0.29" d="M36.8099 128.77L30.3504 131.606C30.3504 131.606 28.0659 148.858 31.4335 153.092C33.402 155.495 34.6332 158.415 34.9784 161.502L33.1469 194.902L31.6108 222.277L27.3963 156.499L25.6436 128.239L36.8099 128.77Z" fill="#073F60"/>
<path d="M-38.2832 142.929C-38.2832 142.929 -6.55644 147.873 -1.00278 149.98C4.55087 152.087 32.6933 156.932 32.6933 156.932C37.1025 155.764 41.6705 155.312 46.223 155.593C53.9627 156.026 61.3478 157.562 77.7331 154.352C94.1184 151.142 117.751 144.013 128.642 141.945C139.532 139.877 146.996 139.66 153.791 140.94C157.665 141.57 161.245 143.395 164.031 146.159" stroke="#073F60" stroke-width="4" stroke-miterlimit="10" stroke-linecap="round"/>
<path d="M53.5295 156.144C53.5295 156.144 51.1662 179.481 52.0524 185.212C52.9386 190.943 54.3172 215.226 49.6695 223.182C45.0217 231.138 34.584 235.943 34.584 235.943" stroke="#073F60" stroke-width="4" stroke-miterlimit="10" stroke-linecap="round"/>
<path d="M57.3902 156.341C57.3902 156.341 55.0664 181.943 55.9526 187.654C56.8388 193.366 58.2174 217.688 53.5696 225.644C48.9219 233.6 35.4316 239.646 35.4316 239.646" stroke="#073F60" stroke-width="4" stroke-miterlimit="10" stroke-linecap="round"/>
<path d="M70.7428 128.553C73.4622 134.347 75.3898 140.481 76.4737 146.789C77.9901 156.636 78.4431 166.05 78.4431 166.05L70.5655 167.704C70.6343 161.126 70.3121 154.55 69.6005 148.01C68.2523 141.486 66.2736 135.108 63.6924 128.966L70.7428 128.553Z" fill="#073F60"/>
<path d="M83.8784 153.014C83.8784 153.014 82.1651 170.364 93.3511 178.753C104.537 187.143 130.277 181.196 137.839 179.817C145.402 178.438 160.113 176.863 160.113 176.863" stroke="#073F60" stroke-width="4" stroke-miterlimit="10" stroke-linecap="round"/>
<path d="M81.1209 154.194C81.1209 154.194 79.9393 172.707 91.1254 181.096C102.311 189.486 128.544 185.035 136.126 183.597C143.708 182.16 159.916 180.446 159.916 180.446" stroke="#073F60" stroke-width="4" stroke-miterlimit="10" stroke-linecap="round"/>
<path d="M-7.26536 160.694C-6.59577 159.237 -4.15374 150.729 -0.372521 141.296C1.41962 136.845 4.90544 129.972 4.90544 129.972L6.99298 126.309L-0.88455 124.989C-0.88455 124.989 -8.0728 138.913 -10.18 146.337C-11.9328 152.482 -13.4492 160.123 -13.4492 160.123C-13.4492 160.123 -7.95464 162.151 -7.26536 160.694Z" fill="#073F60"/>
<path d="M42.718 148.11C46.1333 148.11 48.9019 145.341 48.9019 141.926C48.9019 138.511 46.1333 135.742 42.718 135.742C39.3028 135.742 36.5342 138.511 36.5342 141.926C36.5342 145.341 39.3028 148.11 42.718 148.11Z" fill="#073F60"/>
<path d="M127.539 112.936C127.539 112.936 124.822 105.491 125.787 99.9574C126.153 98.0645 126.999 96.2973 128.244 94.8249C129.489 93.3525 131.09 92.2243 132.896 91.5482C135.297 91.1198 137.764 91.2547 140.104 91.942C140.621 92.1743 141.072 92.5319 141.416 92.9824C141.76 93.4329 141.986 93.962 142.073 94.5219H143.669C143.669 94.5219 144.259 90.7801 138.647 89.5197C136.709 89.0312 134.677 89.0577 132.753 89.5966C130.829 90.1355 129.079 91.1681 127.677 92.5919C125.122 95.4896 123.72 99.2252 123.738 103.089C124.029 106.867 124.776 110.597 125.964 114.196L127.539 112.936Z" fill="white"/>
<path d="M145.382 110.416L145.973 99.9386V98.9933C145.973 98.5797 145.973 98.2449 145.421 98.2055H144.83H144.318L144.535 94.2668L141.148 94.0698L140.931 98.0086H140.202C140.077 98.0103 139.957 98.0596 139.867 98.1464C139.73 98.2843 139.73 98.5994 139.71 99.1508C139.69 99.7023 139.611 100.392 139.611 100.392L139.001 111.381L144.712 111.696L145.382 110.416Z" fill="white"/>
<path opacity="0.52" d="M139.789 111.814C135.634 111.814 127.579 112.307 124.802 113.449C123.154 114.052 121.712 115.114 120.648 116.51C119.583 117.906 118.941 119.577 118.796 121.326C118.193 128.248 118.022 135.2 118.284 142.143C118.796 147.086 118.618 150.178 120.253 152.206C121.888 154.235 124.33 155.672 128.721 155.928C133.113 156.184 147.332 156.303 152.216 154.648C157.1 152.994 158.794 150.355 159.444 143.383C160.094 136.412 160.015 123.69 159.05 120.46C158.085 117.23 156.332 113.173 150.168 112.444C146.728 111.99 143.259 111.779 139.789 111.814Z" fill="#073F60"/>
<path d="M141.759 110.376C137.721 110.376 129.942 110.849 127.146 111.971C125.537 112.546 124.126 113.569 123.079 114.92C122.032 116.27 121.393 117.891 121.238 119.593C120.642 126.344 120.478 133.125 120.745 139.897C121.238 144.722 121.06 147.775 122.596 149.744C123.612 150.927 124.882 151.865 126.31 152.489C127.739 153.114 129.29 153.407 130.848 153.348C135.141 153.584 149.006 153.742 153.772 152.107C158.538 150.473 160.192 147.913 160.822 141.138C161.452 134.363 161.393 121.976 160.428 118.766C159.463 115.556 157.789 111.676 151.763 110.888C148.445 110.479 145.101 110.307 141.759 110.376Z" fill="#34B9C5"/>
<path d="M141.305 139.385C144.329 139.385 146.78 136.934 146.78 133.91C146.78 130.887 144.329 128.436 141.305 128.436C138.281 128.436 135.83 130.887 135.83 133.91C135.83 136.934 138.281 139.385 141.305 139.385Z" fill="url(#paint0_linear)"/>
<path d="M140.735 97.2207C140.51 97.2207 140.295 97.3099 140.136 97.4687C139.977 97.6275 139.888 97.8429 139.888 98.0675V102.755C139.888 102.979 139.977 103.195 140.136 103.353C140.295 103.512 140.51 103.601 140.735 103.601C140.959 103.601 141.175 103.512 141.333 103.353C141.492 103.195 141.581 102.979 141.581 102.755V98.0675C141.581 97.8429 141.492 97.6275 141.333 97.4687C141.175 97.3099 140.959 97.2207 140.735 97.2207Z" fill="#F3A0BB"/>
<path d="M140.735 163.767C140.51 163.767 140.295 163.856 140.136 164.015C139.977 164.173 139.888 164.389 139.888 164.613V169.301C139.888 169.525 139.977 169.741 140.136 169.899C140.295 170.058 140.51 170.147 140.735 170.147C140.959 170.147 141.175 170.058 141.333 169.899C141.492 169.741 141.581 169.525 141.581 169.301V164.613C141.581 164.389 141.492 164.173 141.333 164.015C141.175 163.856 140.959 163.767 140.735 163.767Z" fill="#F3A0BB"/>
<path d="M176.36 132.846H171.673C171.448 132.846 171.233 132.935 171.074 133.094C170.915 133.253 170.826 133.468 170.826 133.693C170.826 133.918 170.915 134.133 171.074 134.292C171.233 134.451 171.448 134.54 171.673 134.54H176.36C176.585 134.54 176.8 134.451 176.959 134.292C177.118 134.133 177.207 133.918 177.207 133.693C177.207 133.468 177.118 133.253 176.959 133.094C176.8 132.935 176.585 132.846 176.36 132.846Z" fill="#F3A0BB"/>
<path d="M109.815 132.846H105.187C104.962 132.846 104.747 132.935 104.588 133.094C104.429 133.253 104.34 133.468 104.34 133.693C104.34 133.918 104.429 134.133 104.588 134.292C104.747 134.451 104.962 134.54 105.187 134.54H109.893C110.118 134.54 110.333 134.451 110.492 134.292C110.651 134.133 110.74 133.918 110.74 133.693C110.74 133.468 110.651 133.253 110.492 133.094C110.333 132.935 110.118 132.846 109.893 132.846H109.815Z" fill="#F3A0BB"/>
<path d="M165.332 107.894L162.004 111.223C161.925 111.301 161.862 111.395 161.82 111.498C161.777 111.601 161.755 111.712 161.755 111.823C161.755 111.935 161.777 112.045 161.82 112.148C161.862 112.251 161.925 112.345 162.004 112.424C162.083 112.503 162.176 112.565 162.279 112.608C162.382 112.651 162.493 112.673 162.604 112.673C162.716 112.673 162.826 112.651 162.929 112.608C163.032 112.565 163.126 112.503 163.205 112.424L166.533 109.096C166.612 109.017 166.675 108.923 166.717 108.82C166.76 108.717 166.782 108.607 166.782 108.495C166.782 108.383 166.76 108.273 166.717 108.17C166.675 108.067 166.612 107.973 166.533 107.894C166.454 107.815 166.361 107.753 166.258 107.71C166.155 107.667 166.044 107.646 165.933 107.646C165.821 107.646 165.711 107.667 165.608 107.71C165.504 107.753 165.411 107.815 165.332 107.894Z" fill="#F3A0BB"/>
<path d="M118.263 154.962L115.033 158.271C114.881 158.438 114.797 158.655 114.797 158.881C114.797 159.107 114.881 159.325 115.033 159.492C115.197 159.643 115.412 159.726 115.634 159.726C115.857 159.726 116.071 159.643 116.235 159.492L119.563 156.164C119.722 156.004 119.812 155.788 119.812 155.563C119.812 155.338 119.722 155.121 119.563 154.962C119.404 154.803 119.188 154.713 118.962 154.713C118.737 154.713 118.521 154.803 118.362 154.962H118.263Z" fill="#F3A0BB"/>
<path d="M163.205 154.962C163.126 154.883 163.032 154.821 162.929 154.778C162.826 154.735 162.716 154.713 162.604 154.713C162.493 154.713 162.382 154.735 162.279 154.778C162.176 154.821 162.083 154.883 162.004 154.962C161.925 155.041 161.862 155.135 161.82 155.238C161.777 155.341 161.755 155.451 161.755 155.563C161.755 155.674 161.777 155.785 161.82 155.888C161.862 155.991 161.925 156.085 162.004 156.164L165.332 159.452C165.496 159.603 165.71 159.687 165.933 159.687C166.155 159.687 166.37 159.603 166.533 159.452C166.694 159.29 166.785 159.071 166.785 158.842C166.785 158.613 166.694 158.394 166.533 158.231L163.205 154.962Z" fill="#F3A0BB"/>
<path d="M116.136 107.895C116.057 107.816 115.964 107.753 115.861 107.71C115.758 107.667 115.647 107.645 115.535 107.645C115.424 107.645 115.313 107.667 115.21 107.71C115.107 107.753 115.014 107.816 114.935 107.895C114.784 108.059 114.7 108.273 114.7 108.496C114.7 108.718 114.784 108.933 114.935 109.096L118.263 112.424C118.422 112.584 118.638 112.673 118.864 112.673C119.089 112.673 119.305 112.584 119.464 112.424C119.624 112.265 119.713 112.049 119.713 111.824C119.713 111.599 119.624 111.382 119.464 111.223L116.136 107.895Z" fill="#F3A0BB"/>
<path fill-rule="evenodd" clip-rule="evenodd" d="M182.643 107.954C179.973 106.133 177.072 104.676 174.017 103.621C164.446 100.766 158.498 95.015 160.802 89.3629L170.177 94.1288C179.452 96.6102 190.343 98.9341 200.387 102.203C205.448 103.838 255.648 67.877 255.648 67.877L269 92.5927C269 92.5927 223.133 114.394 220.809 116.363C218.486 118.333 210.51 131.921 203.853 136.687C201.352 138.479 184.396 145.924 184.396 145.924C183.695 146.178 182.937 146.228 182.209 146.068C181.481 145.909 180.814 145.546 180.284 145.022C179.754 144.499 179.383 143.835 179.215 143.109C179.047 142.383 179.088 141.625 179.334 140.921L174.805 142.064C171.457 142.91 169.113 139.602 169.448 136.155L167.183 136.746C163.678 137.672 161.275 134.521 161.649 130.661L146.78 138.046L140.498 141.177C138.351 139.11 140.104 133.851 145.599 130.503L160.468 121.464L182.643 107.954Z" fill="#FDEBF3"/>
<path fill-rule="evenodd" clip-rule="evenodd" d="M169.448 136.136L181.52 131.192L169.704 138.44C169.43 137.704 169.355 136.909 169.487 136.136H169.448Z" fill="#E3C3D1"/>
<path fill-rule="evenodd" clip-rule="evenodd" d="M161.649 130.641L176.774 122.901L161.787 133.004C161.61 132.23 161.563 131.431 161.649 130.641Z" fill="#E3C3D1"/>
<path fill-rule="evenodd" clip-rule="evenodd" d="M181.736 107.461L170.137 115.555L184.218 108.839L181.736 107.461Z" fill="#E3C3D1"/>
<path fill-rule="evenodd" clip-rule="evenodd" d="M179.334 140.921L187.468 138.322L179.295 142.851C179.182 142.2 179.182 141.534 179.295 140.882L179.334 140.921Z" fill="#E3C3D1"/>
<path d="M47.1097 271.708C47.1097 271.708 34.9783 252.014 33.2059 232.714C31.4334 213.414 33.8361 157.72 33.8361 157.72L31.8667 157.976L30.3896 129.676" stroke="#073F60" stroke-width="4" stroke-miterlimit="10" stroke-linecap="round"/>
<path fill-rule="evenodd" clip-rule="evenodd" d="M143.295 135.821C142.269 135.856 141.285 136.234 140.499 136.895C139.714 137.555 139.173 138.46 138.962 139.464C138.978 140.232 139.203 140.981 139.612 141.63L146.78 138.066C146.78 138.066 145.5 135.506 143.295 135.821Z" fill="#F3A0BB"/>
<path fill-rule="evenodd" clip-rule="evenodd" d="M162.023 93.4594C164.859 96.2363 167.518 96.315 168.326 95.6651C168.861 95.1394 169.196 94.4425 169.271 93.6958L160.546 88.5557C160.388 89.4316 160.439 90.3327 160.695 91.1851C160.952 92.0375 161.407 92.8169 162.023 93.4594Z" fill="#F3A0BB"/>
</g>
<defs>
<linearGradient id="paint0_linear" x1="140.988" y1="139.325" x2="141.596" y2="128.373" gradientUnits="userSpaceOnUse">
<stop stop-color="#6BC5D4"/>
<stop offset="1" stop-color="#008E8C"/>
</linearGradient>
</defs>
</svg>
