<svg width="249" height="248" viewBox="0 0 249 248" fill="none" xmlns="http://www.w3.org/2000/svg">
<mask id="mask0" mask-type="alpha" maskUnits="userSpaceOnUse" x="0" y="0" width="249" height="248">
<path d="M124.914 248C193.397 248 248.914 192.483 248.914 124C248.914 55.5167 193.397 0 124.914 0C56.4307 0 0.914062 55.5167 0.914062 124C0.914062 192.483 56.4307 248 124.914 248Z" fill="#D0EAEF"/>
</mask>
<g mask="url(#mask0)">
<path d="M124.914 248C193.397 248 248.914 192.483 248.914 124C248.914 55.5167 193.397 0 124.914 0C56.4307 0 0.914062 55.5167 0.914062 124C0.914062 192.483 56.4307 248 124.914 248Z" fill="#D0EAEF"/>
<path opacity="0.2" d="M122.904 226.39C152.718 226.39 176.887 224.077 176.887 221.225C176.887 218.372 152.718 216.06 122.904 216.06C93.0907 216.06 68.9219 218.372 68.9219 221.225C68.9219 224.077 93.0907 226.39 122.904 226.39Z" fill="#2EB8C4"/>
<path d="M196.06 204.634C226.222 186.775 243.812 160.708 235.347 146.413C226.883 132.117 195.569 135.006 165.407 152.865C135.244 170.725 117.655 196.791 126.119 211.087C134.584 225.383 165.897 222.494 196.06 204.634Z" fill="#2EB8C4"/>
<g style="mix-blend-mode:screen">
<path d="M188.643 183.906C213.82 159.516 224.859 130.071 213.299 118.138C201.74 106.206 171.959 116.304 146.782 140.694C121.605 165.083 110.566 194.528 122.126 206.461C133.685 218.394 163.466 208.295 188.643 183.906Z" fill="#2EB8C4"/>
</g>
<path d="M123.554 211.059C132.019 196.764 114.429 170.697 84.2666 152.838C54.1041 134.979 22.7908 132.09 14.3263 146.385C5.86182 160.681 23.4515 186.747 53.6139 204.607C83.7764 222.466 115.09 225.355 123.554 211.059Z" fill="#2EB8C4"/>
<g style="mix-blend-mode:screen">
<path d="M127.545 206.453C139.105 194.521 128.066 165.076 102.889 140.686C77.7121 116.296 47.9313 106.198 36.3718 118.131C24.8123 130.063 35.8513 159.508 61.0282 183.898C86.2051 208.288 115.986 218.386 127.545 206.453Z" fill="#2EB8C4"/>
</g>
<path d="M211.637 155.205C211.291 154.06 211.529 150.472 209.951 150.343C208.373 150.213 205.78 153.433 204.656 153.627C201.523 153.8 198.42 154.329 195.407 155.205C193.851 156.091 191.474 157.906 189.789 157.669C188.103 157.431 180.28 151.704 177.168 150.343C174.701 149.528 172.353 148.387 170.188 146.95C169.518 146.042 169.41 135.907 168.848 133.206C168.286 130.504 166.255 123.178 166.363 119.591C166.471 116.004 166.925 102.908 165.002 98.5211C164.086 96.4898 162.663 94.7287 160.868 93.4077C159.074 92.0867 156.97 91.2502 154.758 90.9791C151.279 90.8711 152.446 85.4253 152.921 83.3507C153.194 78.7388 152.192 74.1408 150.026 70.0603C147.432 64.8739 144.061 57.9802 143.715 54.9331C143.37 51.8861 140.647 39.8059 135.071 37.0614C128.473 34.5108 121.161 34.5108 114.563 37.0614C109.031 39.8707 106.286 52.0157 105.919 54.9331C105.552 57.8505 102.202 64.7658 99.6087 70.0603C97.4728 74.1196 96.4864 78.6853 96.7561 83.2642C97.2532 85.4253 98.3985 90.7846 94.9193 90.8927C92.7078 91.1638 90.6034 92.0002 88.8092 93.3213C87.015 94.6423 85.5915 96.4034 84.676 98.4347C82.7527 102.757 83.2065 115.896 83.3145 119.505C83.4226 123.114 81.3912 130.418 80.8293 133.119C80.2675 135.821 80.1594 145.956 79.4895 146.863C77.329 148.33 74.9813 149.501 72.5094 150.343C69.4623 151.704 61.5746 157.452 59.889 157.669C58.2034 157.885 55.8478 156.091 54.2703 155.205C51.2572 154.329 48.1541 153.8 45.0211 153.627C44.135 153.433 41.4554 150.235 39.813 150.343C38.1706 150.451 38.4731 154.06 38.1274 155.205C37.7816 156.35 36.2257 162.401 37.2197 164.433C39.6653 167.432 42.9091 169.68 46.577 170.916C49.0622 171.369 55.5885 169.446 55.6966 169.792C55.8046 170.138 54.508 170.246 52.5414 172.969C50.5749 175.692 50.7478 179.02 52.2173 184.66C53.6868 190.3 66.1776 197.626 70.7806 199.96C75.3836 202.294 84.0709 204.023 83.7467 205.254C83.4226 206.486 77.7823 207.416 76.7666 209.577C75.7509 211.738 79.2302 217.702 79.9217 218.696C80.6132 219.69 78.906 223.775 82.7311 223.321C86.5561 222.867 94.2061 219.258 98.7227 218.826C103.239 218.394 111.689 220.836 116.508 219.496C121.327 218.156 123.186 215.174 124.85 215.174C126.514 215.174 128.696 218.134 133.191 219.496C137.686 220.857 146.482 218.372 150.976 218.826C155.471 219.28 163.143 222.867 166.968 223.321C170.793 223.775 169.129 219.712 169.799 218.696C170.469 217.68 173.948 211.716 172.954 209.577C171.96 207.437 166.298 206.551 165.952 205.254C165.607 203.958 174.294 202.229 178.919 199.96C183.543 197.691 196.099 190.17 197.568 184.595C199.038 179.02 199.189 175.648 197.244 172.904C195.299 170.159 193.981 170.051 194.089 169.727C194.197 169.403 200.723 171.305 203.209 170.851C206.876 169.615 210.12 167.368 212.566 164.368C213.56 162.401 211.982 156.329 211.637 155.205ZM102.483 156.653C101.921 163.633 99.9977 161.169 97.8583 166.788C95.7189 172.407 96.2807 175.584 95.0489 175.432C93.8172 175.281 88.1769 171.607 84.2438 169.576C80.3107 167.544 71.8611 166.658 71.9691 165.859C72.0772 165.059 79.6192 164.735 81.7586 163.698C83.898 162.661 89.3006 158.857 89.9921 154.924C90.4573 151.467 91.2904 148.069 92.4773 144.789C94.159 140.597 95.4398 136.256 96.3023 131.823C96.5401 129.121 96.3023 125.34 97.4261 125.34C98.5498 125.34 98.5498 131.974 99.5871 135.475C100.624 138.976 103.066 149.673 102.483 156.653ZM165.434 169.489C161.609 171.521 155.99 175.13 154.629 175.346C153.267 175.562 153.959 172.428 151.819 166.702C149.68 160.975 147.865 163.633 147.324 156.653C146.784 149.673 149.248 138.976 150.263 135.496C151.279 132.017 151.171 125.469 152.424 125.361C153.678 125.253 153.332 129.078 153.548 131.844C154.411 136.277 155.691 140.619 157.373 144.81C158.499 148.028 159.296 151.351 159.75 154.73C160.42 158.663 165.823 162.38 167.962 163.503C170.102 164.627 177.644 164.973 177.752 165.664C177.86 166.356 169.28 167.48 165.455 169.489H165.434Z" fill="#FDEBF3"/>
<path d="M102.482 156.652C102.482 156.652 106.307 154.059 123.531 154.059C140.754 154.059 147.302 156.652 147.302 156.652C147.562 151.555 148.285 146.491 149.463 141.525C150.954 135.798 154.347 129.229 155.06 124.237C156.659 112.913 142.094 90.2007 142.094 90.2007L136.864 89.8765C136.864 89.8765 143.845 114.534 124.914 114.534C103.736 114.534 111.321 89.7036 111.321 89.7036H106.804C106.804 89.7036 95.1133 113.475 95.1133 124.28C95.1133 129.423 97.8794 136.058 99.4353 141.568C101.078 147.706 102.482 156.652 102.482 156.652Z" fill="#EC6283"/>
<path d="M83.8104 205.297L98.9376 180.229L124.978 196.588L153.525 182.325L166.016 205.297L187.497 200.629L207.81 181.007L194.066 169.835C194.066 169.835 184.298 167.241 177.145 165.794C169.992 164.346 168.22 165.534 168.22 165.534L152.402 163.762H96.9711L72.0976 165.923L55.7602 169.878L44.9551 180.121V195.443L83.8104 205.297Z" fill="#1D4C78"/>
<path d="M137.49 163.158C137.098 162.035 136.951 160.842 137.058 159.657C137.174 159.166 137.411 158.711 137.747 158.334C138.083 157.957 138.507 157.669 138.981 157.496C139.621 157.348 140.286 157.348 140.926 157.496C141.059 157.562 141.174 157.66 141.261 157.78C141.348 157.901 141.403 158.041 141.423 158.188H141.855C141.855 158.188 142.028 157.172 140.516 156.826C139.993 156.693 139.445 156.699 138.926 156.843C138.407 156.987 137.934 157.264 137.555 157.647C136.873 158.433 136.497 159.438 136.496 160.478C136.564 161.513 136.753 162.535 137.058 163.525L137.49 163.158Z" fill="white"/>
<path d="M141.381 161.105C140.057 161.09 138.737 161.235 137.448 161.537C137.002 161.702 136.614 161.995 136.333 162.379C136.053 162.764 135.892 163.222 135.87 163.698C135.706 165.523 135.663 167.356 135.741 169.187C135.87 170.483 135.741 171.348 136.238 171.823C136.504 172.134 136.836 172.382 137.21 172.551C137.583 172.719 137.989 172.802 138.399 172.796C140.465 172.932 142.539 172.824 144.579 172.472C145.854 172.039 146.308 171.348 146.481 169.511C146.709 167.508 146.709 165.485 146.481 163.482C146.391 162.912 146.112 162.389 145.688 161.997C145.265 161.605 144.722 161.367 144.147 161.321C143.232 161.181 142.307 161.109 141.381 161.105Z" fill="#34B9C5"/>
<path d="M141.208 168.928C142.019 168.928 142.677 168.27 142.677 167.459C142.677 166.647 142.019 165.989 141.208 165.989C140.396 165.989 139.738 166.647 139.738 167.459C139.738 168.27 140.396 168.928 141.208 168.928Z" fill="url(#paint0_linear)"/>
<path d="M101.164 153.153C108.477 151.298 116.01 150.454 123.552 150.646C131.866 150.596 140.161 151.437 148.296 153.153" stroke="#F195B1" stroke-width="4" stroke-miterlimit="10" stroke-linecap="round"/>
<path d="M83.8111 205.189L124.914 215.152L120.311 223.256L86.6204 229.609L70.6504 219.928V207.005L83.8111 205.189Z" fill="#ECD8E1"/>
<path d="M124.914 196.481L138.788 204.131C138.788 204.131 145.963 203.677 150.198 203.828C154.434 203.979 165.325 205.492 165.325 205.492L172.867 202.64L153.569 182.218L124.914 196.481Z" fill="#ECD8E1"/>
</g>
<path d="M121.205 33.7825C118.831 34.0672 116.483 34.6473 114.219 35.5227C108.591 38.3807 105.799 50.7359 105.425 53.7038C105.051 56.6717 101.644 63.7067 99.0054 69.0929C96.8325 73.2224 95.829 77.8671 96.1034 82.5254C96.6091 84.7238 97.7743 90.1759 94.2348 90.2859C94.1407 90.2974 94.0468 90.3099 93.9531 90.3235C94.2227 90.7643 94.3675 91.0003 94.3675 91.0003L105.36 89.6812H117.759L119.788 58.0129L127.718 59.4087L133.126 89.6592L155.11 90.9783L155.532 90.4325C155.391 90.4107 155.251 90.3911 155.11 90.3738C151.57 90.2639 152.757 84.7238 153.241 82.6133C153.518 77.9216 152.499 73.244 150.295 69.0929C147.657 63.8166 144.227 56.8036 143.876 53.7038C143.524 50.604 140.754 38.3147 135.082 35.5227C130.678 33.8203 125.961 33.2348 121.342 33.7664C121.296 33.7716 121.251 33.777 121.205 33.7825Z" fill="#1D4C78"/>
<path d="M112.008 61.0355C112.008 61.0355 111.64 70.6052 115.821 75.8191C120.002 81.0329 122.082 82.7928 125.504 82.9908C128.927 83.1888 133.043 80.1529 134.776 76.2811C135.988 73.4183 137.015 70.479 137.852 67.4813C138.049 64.1404 138.049 60.7906 137.852 57.4497C137.484 56.0857 134.624 59.7596 130.638 55.2497C128.371 52.7969 126.473 50.0169 125.006 47C123.756 50.3445 121.864 53.4031 119.439 55.9977C117.255 58.0848 114.744 59.7874 112.008 61.0355V61.0355Z" fill="#FDEBF3"/>
<defs>
<linearGradient id="paint0_linear" x1="141.105" y1="168.914" x2="141.269" y2="165.958" gradientUnits="userSpaceOnUse">
<stop stop-color="#6BC5D4"/>
<stop offset="1" stop-color="#008E8C"/>
</linearGradient>
</defs>
</svg>
