<svg width="67" height="67" viewBox="0 0 67 67" fill="none" xmlns="http://www.w3.org/2000/svg">
<path d="M19.5833 29.2685C19.5833 29.1621 19.5833 29.1621 19.5833 29.2685C19.264 28.5235 19.0511 27.8849 18.8383 27.0334C18.6254 26.2884 18.519 25.3305 18.519 24.4791C18.519 21.499 19.6897 18.8383 21.8183 16.6032C23.6277 14.6875 26.5013 13.4103 28.6299 12.6653V8.94019C28.6299 8.30161 28.7363 7.66302 29.2685 7.2373C29.6942 6.70514 30.2264 6.49228 30.9714 6.49228H34.6965C35.3351 6.49228 35.9736 6.70514 36.5058 7.2373C36.9315 7.66302 37.2508 8.30161 37.2508 9.04662V12.5588C38.3151 12.6653 38.6344 12.8781 39.273 13.091C40.3373 13.4103 41.1888 13.7296 41.9338 14.1553C42.5724 14.4746 43.3174 14.9003 43.956 15.326C44.8074 15.8582 45.0203 16.0711 45.2331 16.2839C45.446 16.4968 45.5524 16.6032 45.7653 16.7096C46.6167 17.5611 46.7232 18.7318 46.191 19.6897L43.956 23.7341C43.6367 24.4791 42.8916 24.9048 42.1466 25.0113C41.508 25.1177 40.763 24.9048 40.2309 24.4791L40.1244 24.3727C40.1244 24.3727 40.018 24.2662 39.9116 24.1598C39.6987 24.0534 39.3794 23.8405 38.9537 23.5212C38.528 23.2019 37.9958 22.9891 37.4637 22.7762C36.9315 22.5633 36.3994 22.3505 35.6543 22.1376C35.0158 21.9248 34.2707 21.8183 33.6322 21.8183C32.2486 21.8183 31.0778 22.1376 30.2264 22.6698C29.4814 23.2019 29.2685 23.7341 29.2685 24.4791C29.2685 24.7984 29.2685 25.0113 29.3749 25.2241C29.4814 25.437 29.5878 25.5434 29.8006 25.7563C30.1199 26.0756 30.4392 26.3949 30.7585 26.6077C30.9714 26.7141 31.2907 26.927 32.0357 27.3527C32.6743 27.672 33.2064 27.8849 33.6322 28.0977C34.0579 28.3106 34.6965 28.5235 35.5479 28.8428C36.0801 29.0556 36.5058 29.1621 36.9315 29.3749H66.2C63.8585 12.7717 49.9161 0 32.8871 0C15.8582 0 1.91576 12.7717 0 29.2685H19.5833Z" fill="#00CCD2"/>
<path d="M46.6167 37.6765C46.6167 37.7829 46.7232 37.9958 46.7232 38.1022C47.0425 39.0601 47.1489 40.1244 47.1489 41.1887C47.1489 44.3816 46.0846 47.2553 43.956 49.5968C42.1466 51.6189 40.3373 53.0025 37.1444 53.6411V57.2598C37.1444 57.8984 36.9315 58.537 36.3994 59.0691C35.9736 59.4948 35.3351 59.8141 34.6965 59.8141H30.9714C30.3328 59.8141 29.8007 59.6013 29.2685 59.0691C28.8428 58.6434 28.6299 58.0048 28.6299 57.2598V53.7476C27.5656 53.5347 26.8206 53.3218 26.0756 53.0025C24.9048 52.5768 23.7341 52.1511 22.9891 51.6189C22.2441 51.1932 21.3926 50.6611 20.754 50.1289C20.009 49.5968 19.5833 49.2775 19.264 48.9582C18.9447 48.6389 18.7318 48.426 18.6254 48.3196C17.8804 47.3617 17.774 46.191 18.519 45.2331L21.3926 41.508C21.6055 41.1887 22.1376 40.6566 23.0955 40.5501C23.8405 40.4437 24.5855 40.763 25.1177 41.2951C26.927 42.8916 28.9492 43.9559 31.0778 44.3816C32.8872 44.8074 34.59 44.5945 35.8672 43.6366C36.6122 43.1045 36.9315 42.4659 36.9315 41.508C36.9315 41.2951 36.8251 41.0823 36.7187 40.8694C36.5058 40.5501 36.2929 40.2308 36.0801 40.018C35.9736 39.9115 35.6544 39.5923 34.8029 39.1665C34.0579 38.8472 33.5257 38.5279 32.9936 38.3151C32.5679 38.1022 32.0357 37.8894 31.1843 37.5701H0.106445C2.23506 53.7476 16.1775 66.2 32.8872 66.2C49.5968 66.2 63.5392 53.7476 65.6679 37.5701H46.6167V37.6765Z" fill="#FF6890"/>
</svg>
